<?xml version="1.0" encoding="UTF-8"?> <svg xmlns="http://www.w3.org/2000/svg" width="375" height="131" viewBox="0 0 375 131" fill="none"> <rect width="374.366" height="131" fill="#EE3424"></rect> <path fill-rule="evenodd" clip-rule="evenodd" d="M108.771 29.9268C113.638 29.9268 115.168 33.4129 116.446 36.8991C116.989 38.3763 129.63 72.993 130.007 74.0303C130.113 74.3211 130.043 74.7954 129.596 74.9676C129.149 75.1348 122.58 77.6932 122.217 77.8282C121.854 77.9631 121.445 77.7638 121.312 77.4024C121.177 77.0416 118.454 69.4955 118.147 68.6519H99.4177C99.1089 69.4955 96.3579 77.0574 96.2314 77.4024C96.1066 77.7474 95.7108 77.9789 95.3274 77.8282C94.9423 77.6774 88.3437 75.1184 87.9541 74.9676C87.5769 74.8219 87.403 74.3911 87.5385 74.0303C88.0015 72.7333 100.45 38.6744 101.088 36.8991C102.321 33.4688 103.906 29.9268 108.771 29.9268ZM86.5368 91.8604C86.1444 91.8604 85.8276 92.189 85.8276 92.5928V100.679C85.8276 101.083 86.1449 101.406 86.5368 101.406H131.007C131.396 101.406 131.71 101.083 131.71 100.679V92.5928C131.71 92.1885 131.396 91.8604 131.007 91.8604H86.5368ZM108.735 41.2295L102.4 60.2448H115.168L108.812 41.2295H108.735H108.735ZM203.754 72.4058C202.822 72.7248 202.207 72.8022 201.472 72.8022C199.959 72.8022 199.116 72.2025 199.116 70.6486C199.116 69.0314 200.187 68.4865 202.284 68.4865C202.789 68.4865 203.298 68.5616 203.533 68.6435V69.8004C203.533 71.0523 203.599 71.8727 203.754 72.4063V72.4058ZM209.135 74.2669C208.018 72.5639 207.727 71.5633 207.727 69.4204V65.0794C207.727 62.7349 207.455 61.893 206.834 61.037C205.975 59.8286 204.542 59.3052 201.9 59.3052C200.036 59.3052 198.222 59.5085 196.468 59.9534L197.095 63.0455C198.285 62.88 199.528 62.7349 200.406 62.7349C203.21 62.7349 203.534 63.1426 203.534 65.2442V66.0302C202.911 65.8637 202.208 65.7434 201.394 65.7434C197.175 65.7434 194.948 67.8066 194.948 71.2211C194.948 74.4284 197.325 76.1737 200.227 76.1737C201.314 76.1737 202.444 75.9744 203.339 75.6079C203.879 75.3708 204.114 75.2364 204.817 74.7784C205.234 75.3928 206.083 76.023 206.428 76.1359L209.134 74.2669H209.135ZM250.869 72.4058C249.935 72.7248 249.324 72.8022 248.587 72.8022C247.071 72.8022 246.214 72.2025 246.214 70.6486C246.214 69.0314 247.298 68.4865 249.399 68.4865C249.906 68.4865 250.412 68.5616 250.643 68.6435V69.8004C250.643 71.0523 250.711 71.8727 250.87 72.4063L250.869 72.4058ZM256.25 74.2669C255.128 72.5639 254.84 71.5633 254.84 69.4204V65.0794C254.84 62.7349 254.567 61.893 253.944 61.037C253.087 59.8286 251.654 59.3052 249.011 59.3052C247.143 59.3052 245.314 59.5085 243.565 59.9534L244.189 63.0455C245.378 62.88 246.626 62.7349 247.522 62.7349C250.317 62.7349 250.642 63.1426 250.642 65.2442V66.0302C250.023 65.8637 249.324 65.7434 248.505 65.7434C244.272 65.7434 242.042 67.8066 242.042 71.2211C242.042 74.4284 244.422 76.1737 247.341 76.1737C248.426 76.1737 249.557 75.9744 250.45 75.6079C250.995 75.3708 251.226 75.2364 251.926 74.7784C252.348 75.3928 253.198 76.023 253.541 76.1359L256.251 74.2669H256.25ZM289.103 75.8129C289.103 75.8129 286.793 70.8795 286.229 69.7621C285.59 68.4961 285.002 67.622 283.698 67.3148V67.2386C284.57 67.0732 285.267 66.543 286.015 64.9314C286.744 63.3577 286.955 63.0189 287.377 62.648C287.795 62.2708 288.363 62.4114 288.363 62.4114L288.579 59.4994C287.972 59.4198 287.299 59.4176 286.607 59.4577C285.461 59.526 284.866 59.8518 284.302 60.4238C283.864 60.8597 283.562 61.5096 283.193 62.2544L282.079 64.5565C281.675 65.404 281.475 65.7846 280.378 65.7846H279.668V52.9122H275.435V75.8129H279.668V69.2273L280.242 69.2149C281.456 69.2149 281.666 69.5147 282.305 70.792C283.058 72.3177 284.489 75.8123 284.489 75.8123H289.103V75.8129ZM170.102 75.8129H174.979L167.607 53.2984C166.833 53.037 165.867 52.8738 164.843 52.8738C163.723 52.8738 163.326 53.0229 162.448 53.2984L154.651 75.8129H159.326C159.326 75.8129 159.955 73.836 160.703 71.3854H168.785C169.509 73.836 170.102 75.8129 170.102 75.8129ZM161.891 67.6101C161.891 67.6101 163.236 63.0946 163.443 62.3877C163.988 60.5695 164.801 57.6767 164.801 57.6767H164.937C164.937 57.6767 165.687 60.6751 166.181 62.3605L167.659 67.6101H161.891ZM216.333 65.0398C214.84 65.0398 213.63 66.2544 213.63 67.7474C213.63 69.2465 214.84 70.4521 216.333 70.4521C217.824 70.4521 219.033 69.2465 219.033 67.7474C219.033 66.2544 217.823 65.0398 216.333 65.0398ZM180.768 52.9122H176.534V75.8129H180.768V52.9122ZM264.916 62.9433C267.252 62.9963 267.54 63.4763 267.54 65.443V75.8129H271.735V65.0788C271.735 62.7344 271.464 61.8925 270.841 61.0364C269.983 59.8281 268.286 59.3046 265.425 59.3046C262.595 59.3046 260.793 59.6056 258.469 60.2967V75.8129H262.708V63.1426C263.826 62.9811 264.016 62.9433 264.916 62.9433ZM191.239 52.5056C188.598 52.5056 187.161 53.0262 186.304 54.2346C185.682 55.0901 185.41 55.9545 185.41 58.3007V60.2967H183.306V63.7197H185.41V75.8129H189.604L189.594 63.7197H193.784V60.2967H189.594L189.604 58.4616C189.604 56.3628 189.929 55.9557 192.733 55.9557C193.034 55.9557 193.374 55.972 193.739 55.9997L194.401 52.7123C193.363 52.5723 192.305 52.5062 191.239 52.5062L191.239 52.5056ZM224.941 52.7168C226.382 52.6332 229.598 52.513 231.624 52.513C231.983 52.513 232.362 52.5164 232.749 52.5333C236.728 52.5333 239.003 55.4294 239.003 58.8241C239.003 61.133 237.946 62.6655 235.468 63.5808C238.388 64.2262 239.916 66.5051 239.916 69.2883C239.916 71.3324 239.334 72.954 238.271 74.0619C236.903 75.4193 234.827 76.1737 232.065 76.1737C229.597 76.1737 226.513 76.098 224.939 76.0015V52.7168H224.94H224.941ZM231.624 56.4712C230.915 56.4712 230.056 56.4825 229.194 56.5135V62.0116H231.628C232.583 62.0116 233.361 61.7434 233.891 61.2256C234.389 60.7411 234.649 60.0511 234.649 59.2324C234.649 57.4774 233.699 56.4785 231.932 56.4706H231.624V56.4712ZM231.705 72.2268H231.9C234.089 72.2268 235.448 71.0534 235.461 68.6926C235.436 67.8405 235.115 67.0607 234.537 66.4961C233.895 65.8563 232.994 65.5215 231.938 65.5215H229.192V72.2002C229.967 72.2172 230.817 72.2234 231.705 72.2273V72.2268Z" fill="white"></path> </svg> 