<?xml version="1.0" encoding="UTF-8"?> <svg xmlns="http://www.w3.org/2000/svg" width="50" height="50" viewBox="0 0 50 50" fill="none"> <path d="M19.5298 25.6266L26.5108 46.5135C26.8174 47.4359 27.3962 48.2438 28.17 48.8317C28.9444 49.4196 29.878 49.7597 30.8492 49.8073H31.0823H31.0817C32.0136 49.8068 32.9254 49.5367 33.7065 49.029C34.4876 48.5213 35.1052 47.7984 35.4846 46.9472L37.9671 41.3239L46.5945 50L50.001 46.5936L41.3567 37.9499L46.98 35.4674C48.1613 34.9295 49.0757 33.9382 49.5168 32.7177C49.9573 31.4972 49.8872 30.1502 49.3224 28.9817C48.757 27.8134 47.745 26.9224 46.5144 26.51L25.6275 19.5452C24.4894 19.1658 23.2511 19.2241 22.1538 19.7094C21.0566 20.1941 20.1796 21.0711 19.6943 22.1683C19.209 23.2655 19.1507 24.5045 19.5301 25.6426L19.5298 25.6266ZM44.9871 31.0655L35.3472 35.3473L31.0654 44.9873L24.0999 24.1004L44.9871 31.0655Z" fill="#0080C9"></path> <path d="M5.43114 8.83533L8.83932 5.42715L15.4629 12.0507L12.0547 15.4589L5.43114 8.83533Z" fill="#0080C9"></path> <path d="M34.3486 12.0544L40.9721 5.43088L44.3803 8.83906L37.7568 15.4626L34.3486 12.0544Z" fill="#0080C9"></path> <path d="M5.42827 40.9762L12.0518 34.3526L15.46 37.7608L8.83645 44.3844L5.42827 40.9762Z" fill="#0080C9"></path> <path d="M0 22.4936H9.63996V27.3139H0V22.4936Z" fill="#0080C9"></path> <path d="M22.4935 0H27.3139V9.63996H22.4935V0Z" fill="#0080C9"></path> </svg> 