<?xml version="1.0" encoding="UTF-8"?> <svg xmlns="http://www.w3.org/2000/svg" width="50" height="50" viewBox="0 0 50 50" fill="none"> <path d="M27.5 25.0003C27.5 26.3809 26.3805 27.5005 24.9998 27.5005C23.6192 27.5005 22.4997 26.3809 22.4997 25.0003C22.4997 23.6197 23.6192 22.5001 24.9998 22.5001C26.3805 22.5001 27.5 23.6197 27.5 25.0003Z" fill="#0080C9"></path> <path d="M25.4077 0H24.5741H24.5747C18.0578 0.0133698 11.8124 2.60881 7.20694 7.21854C2.60018 11.8283 0.00877987 18.0754 0 24.5923V25.4259V25.4253C0.0133698 31.9422 2.60881 38.1876 7.21854 42.7931C11.8283 47.3998 18.0754 49.9912 24.5923 50H25.4259H25.4253C31.9422 49.9866 38.1876 47.3912 42.7931 42.7815C47.3998 38.1717 49.9912 31.9246 50 25.4077V24.5741V24.5747C49.9866 18.0578 47.3912 11.8124 42.7815 7.20694C38.1717 2.60018 31.9246 0.00877987 25.4077 0V0ZM27.4999 44.8845V37.5009H22.4995V44.8845C18.0555 44.4003 13.9097 42.4129 10.7486 39.2517C7.58755 36.0905 5.60003 31.9448 5.11579 27.5008H12.4994V22.5004H5.11579C5.60001 18.0565 7.5874 13.9106 10.7486 10.7495C13.9098 7.58849 18.0555 5.60096 22.4995 5.11673V12.5003H27.4999V5.11673C31.9438 5.60095 36.0897 7.58834 39.2508 10.7495C42.4118 13.9107 44.3993 18.0565 44.8836 22.5004H37.5V27.5008H44.8836C44.3993 31.9448 42.412 36.0906 39.2508 39.2517C36.0896 42.4127 31.9438 44.4003 27.4999 44.8845V44.8845Z" fill="#0080C9"></path> </svg> 