<?xml version="1.0" encoding="UTF-8"?> <svg xmlns="http://www.w3.org/2000/svg" width="47" height="50" viewBox="0 0 47 50" fill="none"> <path d="M0.000375751 17.7421V25.8065C0.00206337 27.5334 0.924052 29.1282 2.41926 29.9916V50H44.3542V29.9916C45.8494 29.1282 46.7713 27.5334 46.7731 25.8065V17.7421C46.7731 16.4584 46.2634 15.2276 45.3561 14.3202C44.4487 13.4128 43.2178 12.9032 41.9347 12.9032H40.9588C42.3617 10.1541 42.2351 6.87347 40.6241 4.24087C39.0135 1.60885 36.1503 0.00216011 33.0637 0C29.2564 0 25.6709 1.79275 23.3865 4.83893C21.1021 1.79289 17.5165 0 13.7094 0C10.6227 0.00224997 7.75959 1.60885 6.14901 4.24087C4.53786 6.87347 4.41142 10.1541 5.81431 12.9032H4.83833C3.55519 12.9032 2.32439 13.4128 1.417 14.3202C0.509641 15.2276 0 16.4584 0 17.7421H0.000375751ZM4.83931 17.7421H20.9681V25.8065H4.83931V17.7421ZM7.25877 45.1611L7.25821 30.6451H20.9676V45.1611H7.25877ZM39.5164 45.1611H25.8065V30.6451H39.5158L39.5164 45.1611ZM41.9359 25.8065H25.807V17.7421H41.9359V25.8065ZM33.0643 4.83905C34.5049 4.83905 35.8359 5.60745 36.5565 6.85515C37.2765 8.10284 37.2765 9.63967 36.5565 10.8874C35.8359 12.135 34.5049 12.9035 33.0643 12.9035H25.8066V12.0968C25.8066 10.1718 26.5711 8.32609 27.9324 6.96479C29.2932 5.60348 31.1395 4.83896 33.0644 4.83896L33.0643 4.83905ZM9.67752 8.87125C9.67752 7.80188 10.1022 6.77638 10.8583 6.01976C11.6149 5.26372 12.6404 4.83902 13.7097 4.83902C15.6347 4.83902 17.481 5.60349 18.8417 6.96485C20.203 8.32617 20.9676 10.1719 20.9676 12.0968V12.9035H13.7099C12.6405 12.9035 11.615 12.4788 10.8584 11.7228C10.1024 10.9662 9.67766 9.94067 9.67766 8.87128L9.67752 8.87125Z" fill="#0080C9"></path> </svg> 