<?xml version="1.0" encoding="UTF-8"?> <svg xmlns="http://www.w3.org/2000/svg" width="50" height="50" viewBox="0 0 50 50" fill="none"> <path d="M25.6583 0L24.1662 2.22513L12.3249 20.0003H0V50H35.516C37.3471 50 39.1363 49.4513 40.6529 48.4247C42.1694 47.3988 43.3437 45.9414 44.0243 44.2419L49.2408 31.1921C50.5574 27.9015 50.1412 24.1702 48.1311 21.251C46.1216 18.3318 42.785 16.6112 39.241 16.667H35.5742L35.7161 16.1171C36.3491 13.5711 36.6682 10.957 36.6659 8.33366C36.6659 6.12356 35.7881 4.00364 34.2251 2.44115C32.6626 0.878072 30.5433 0.000401902 28.3326 0.000401902L25.6583 0ZM5.0007 44.9996V24.9998H11.6675L11.6669 44.9996H5.0007ZM31.6671 8.33326C31.6584 10.548 31.3788 12.7533 30.8336 14.9L29.1671 21.6668H39.2418C41.1675 21.6377 42.9794 22.5765 44.0671 24.1663C45.0797 25.6974 45.279 27.6273 44.6001 29.3334L39.3836 42.3831C39.0738 43.1556 38.5402 43.8177 37.8514 44.2838C37.162 44.75 36.3493 44.9994 35.5169 44.9994H16.6673V22.4996L28.3336 4.99975C29.2177 4.99975 30.0659 5.35084 30.6907 5.97572C31.3162 6.60118 31.6673 7.44868 31.6673 8.33284L31.6671 8.33326Z" fill="#0080C9"></path> </svg> 