<svg xmlns="http://www.w3.org/2000/svg" fill="none" viewBox="0 0 364 84"><path fill="#282828" d="M108.408 25.94a40.878 40.878 0 018.757-.906c5.418 0 8.967 1.139 11.37 3.481 1.757 1.7 2.676 3.98 2.676 6.931 0 4.294-3.144 7.931-7.482 9.383v.173c3.629.78 9.176 3.856 9.176 10.709 0 3.435-1.259 6.072-3.224 8.04-2.871 2.871-7.548 4.023-13.725 4.023-3.305 0-5.854-.234-7.548-.375v-41.46zm3.064 17.936h6.354c6.29 0 10.241-3.606 10.241-8.274 0-5.916-4.629-8.072-11.089-8.072-2.888 0-4.532.21-5.517.453l.011 15.893zm0 21.058c1.274.265 3.064.343 5.323.343 6.678 0 12.918-2.315 12.918-9.471 0-6.651-5.871-9.49-12.757-9.508h-5.484v18.636zm32.041-36.027c0 1.389-.953 2.59-2.581 2.59-1.402 0-2.392-1.201-2.392-2.59 0-1.39 1.087-2.591 2.501-2.591 1.467-.007 2.472 1.17 2.472 2.59zm-4.02 38.542V37.475h3.063v29.972l-3.063.002zm36.564-44.334v37.372c0 2.202.096 4.856.259 6.963h-2.774l-.218-5.683h-.161c-1.581 3.34-5.29 6.369-11.015 6.369-7.628 0-13.338-6.182-13.338-15.127-.048-9.992 6.305-16.22 13.951-16.22 5.338 0 8.708 2.686 10.096 5.277h.128V23.123l3.072-.008zm-3.063 26.225a12.12 12.12 0 00-.307-2.736c-1.087-4.029-4.71-7.352-9.774-7.352-6.726 0-10.998 5.683-10.998 13.441 0 6.735 3.479 12.972 10.854 12.972 4.419 0 8.581-2.856 9.903-7.853a8.608 8.608 0 00.322-2.482v-5.99zm36.741.305h-15.993v10.008h17.885v7.788h-27.722V25.345h26.787v7.788h-16.95v8.768h15.999l-.006 7.744zm15.995-12.759L228.827 42a130.523 130.523 0 012.581 4.557h.167a118.442 118.442 0 012.418-4.704l2.783-4.967h10.655l-10.385 14.563 10.505 15.996h-11.123l-3.163-5.493a56.79 56.79 0 01-2.449-4.652h-.167c-.805 1.656-1.611 3.157-2.418 4.664l-2.964 5.472h-10.746l10.692-15.575-10.438-14.992 10.955.017zm25.148 10.261c0-4.018-.122-7.405-.259-10.271h8.533l.454 4.279h.128c2.34-3.227 5.934-4.966 10.516-4.966 6.908 0 13.118 5.816 13.118 15.576 0 11.142-7.334 16.37-14.351 16.37-3.77 0-6.789-1.473-8.185-3.485h-.128v15.154h-9.817l-.009-32.657zm9.817 7.21a8.927 8.927 0 00.198 1.983c.635 2.545 2.901 4.507 5.739 4.507 4.238 0 6.773-3.458 6.773-8.645 0-4.86-2.246-8.572-6.617-8.572-2.776 0-5.275 2.03-5.871 4.805a6.585 6.585 0 00-.217 1.698l-.005 4.225zm35.269.866c.292 3.942 4.325 5.816 8.892 5.816 3.32 0 6.04-.421 8.697-1.295l1.325 6.428c-3.262 1.29-7.206 1.932-11.44 1.932-10.696 0-16.839-6.03-16.839-15.554 0-7.767 5.001-16.352 15.915-16.352 10.233 0 14.099 7.7 14.099 15.262a17.68 17.68 0 01-.35 3.763h-20.299zm11.525-6.51c.017-2.288-1.039-6.194-5.506-6.194-4.146 0-5.827 3.666-6.088 6.194h11.594zm13.303-1.751c0-4.488-.085-7.443-.259-10.076h8.435l.359 5.658h.241c1.622-4.47 5.465-6.344 8.522-6.344a8.741 8.741 0 012.098.177v8.935a12.432 12.432 0 00-2.653-.265c-3.605 0-6.069 1.852-6.73 4.826a11.005 11.005 0 00-.182 2.105V67.44h-9.831V46.96zm36.144-18.793v8.715H364v7.01h-7.067v11.072c0 3.686.946 5.384 3.875 5.384.981.013 1.96-.082 2.918-.284l.079 7.22c-1.268.442-3.612.816-6.361.816-3.172 0-5.821-1.069-7.393-2.652-1.822-1.81-2.713-4.717-2.713-9.05V43.893h-4.195v-7.009h4.195V30.31l9.598-2.14z"/><path fill="#FF6700" d="M77.088 39.738c.03.712.063 1.423.063 2.15 0 18.075-15.201 32.79-33.875 32.79a34.68 34.68 0 01-13.099-2.558 33.781 33.781 0 01-11.042-7.282c-.4-.365-.781-.75-1.142-1.152a32.498 32.498 0 01-4.527-6.226l15.421-14.912 16 15.487L88.88 15.472a53.858 53.858 0 00-5.584-7.449l-7.039 6.814a38.62 38.62 0 00-3.044-3.12C65.186 4.192 54.446-.01 43.271 0 19.41 0 0 18.787 0 41.885c0 .953.03 1.894.109 2.816l10.024-9.703C13.418 20.206 27.026 9.082 43.27 9.082c8.692-.01 17.052 3.228 23.338 9.038a32.075 32.075 0 013.003 3.157L44.885 45.204l-16-15.502L2.331 55.407a39.384 39.384 0 003.792 7.91 42.463 42.463 0 005.217 6.807 43.18 43.18 0 0014.478 10.085 44.412 44.412 0 0017.453 3.562c23.854 0 43.272-18.796 43.272-41.885a40.352 40.352 0 00-1.268-10.067l-8.187 7.92z"/><path fill="#D34811" d="M69.593 21.248l6.664-6.413a38.791 38.791 0 00-3.033-3.118l-6.615 6.403a32.395 32.395 0 012.984 3.128zM16.366 61.794a32.35 32.35 0 01-2.9-4.334l-.027-.046-7.043 6.34c.074.113.146.231.217.343a42.575 42.575 0 002.999 4.06l6.754-6.363z"/></svg>