<?xml version="1.0" encoding="UTF-8"?> <svg xmlns="http://www.w3.org/2000/svg" width="54" height="50" viewBox="0 0 54 50" fill="none"> <path d="M44.1339 12.5002H43.3004V5.00047C43.3004 3.75593 42.8365 2.55611 41.9989 1.63602C41.1618 0.715254 40.0115 0.140326 38.7726 0.0223199C37.5339 -0.0951004 36.2957 0.253675 35.3 1.00005L23.3004 10.0001H11.6334C8.08351 10.0106 4.73051 11.6364 2.52514 14.4184C0.31918 17.2004 -0.499872 20.8353 0.299983 24.2945C1.09926 27.7532 3.4308 30.6602 6.63365 32.1919V50H21.6337V33.3333H23.3002L35.3005 42.3333C36.2962 43.0797 37.5344 43.4284 38.7731 43.311C40.0118 43.1936 41.1622 42.6181 41.9993 41.6973C42.8369 40.7771 43.3008 39.5774 43.3008 38.3335V30.8331H44.1344C47.4094 30.8331 50.4356 29.0864 52.0725 26.2496C53.71 23.4135 53.71 19.9194 52.0725 17.0832C50.4356 14.247 47.4094 12.4997 44.1344 12.4997L44.1339 12.5002ZM11.6338 15.0004H22.4673V28.3335H11.6338C9.25222 28.3335 7.05146 27.0628 5.86038 25.0004C4.66931 22.9381 4.66932 20.3965 5.86038 18.3336C7.05145 16.2712 9.25222 15.0005 11.6338 15.0005V15.0004ZM16.6341 45.0005L11.6338 44.9999V33.3335H16.6341V45.0005ZM38.3009 38.3337L27.4673 30.2083V13.1249L38.3003 5.00017V38.3337H38.3009ZM44.1341 25.8336H43.3005V17.5002H44.1341C45.6222 17.5002 46.9981 18.2943 47.7421 19.5836C48.4868 20.8723 48.4868 22.461 47.7421 23.7503C46.9981 25.039 45.6222 25.8336 44.1341 25.8336Z" fill="#0080C9"></path> </svg> 