<?xml version="1.0" encoding="UTF-8"?> <svg xmlns="http://www.w3.org/2000/svg" width="50" height="50" viewBox="0 0 50 50" fill="none"> <path d="M50.0003 5.83333C50.0003 4.28645 49.3859 2.80251 48.2919 1.70846C47.1979 0.61447 45.7139 0.00012207 44.1671 0.00012207H34.1672V5.00044H44.1671C44.388 5.00044 44.6001 5.08821 44.7565 5.244C44.9123 5.40037 45 5.61254 45 5.83342V15.8333H50.0004L50.0003 5.83333Z" fill="#0080C9"></path> <path d="M0.000701904 5.83331V15.8332H5.00102V5.83331C5.00102 5.37292 5.37363 5.00032 5.83401 5.00032H15.8339V0H5.83401C4.28713 0 2.8032 0.614423 1.70915 1.70834C0.615153 2.80233 0.000806355 4.28633 0.000806355 5.83321L0.000701904 5.83331Z" fill="#0080C9"></path> <path d="M0.00010445 44.1668C0.00010445 45.7137 0.614526 47.1976 1.70844 48.2917C2.80244 49.3857 4.28643 50 5.83331 50H15.8332V44.9997H5.83331C5.37292 44.9997 5.00032 44.6271 5.00032 44.1667V34.1668H0L0.00010445 44.1668Z" fill="#0080C9"></path> <path d="M50.0003 34.1667H45V44.1666C45 44.3875 44.9122 44.5997 44.7564 44.7561C44.6001 44.9118 44.3879 44.9996 44.167 44.9996H34.1671V49.9999H44.167C45.7139 49.9999 47.1978 49.3855 48.2919 48.2916C49.3859 47.1976 50.0002 45.7136 50.0002 44.1667L50.0003 34.1667Z" fill="#0080C9"></path> <path d="M19.1668 16.25C19.1668 17.8607 17.8607 19.167 16.2498 19.167C14.639 19.167 13.3335 17.8609 13.3335 16.25C13.3335 14.6392 14.639 13.3336 16.2498 13.3336C17.8607 13.3336 19.1668 14.6392 19.1668 16.25Z" fill="#0080C9"></path> <path d="M37.5003 32.9167C37.5003 34.5274 36.1947 35.8337 34.5833 35.8337C32.9726 35.8337 31.6669 34.5275 31.6669 32.9167C31.6669 31.3059 32.9725 30.0003 34.5833 30.0003C36.1946 30.0003 37.5003 31.3059 37.5003 32.9167Z" fill="#0080C9"></path> <path d="M13.1415 34.4138L33.0895 11.4732L36.8626 14.754L16.9146 37.6946L13.1415 34.4138Z" fill="#0080C9"></path> </svg> 