<svg xmlns="http://www.w3.org/2000/svg" xmlns:xlink="http://www.w3.org/1999/xlink" viewBox="0 0 506.27 436.52"><defs><style>.cls-1{fill:none;}.cls-2{isolation:isolate;}.cls-29,.cls-3{fill:#fff;}.cls-4{fill:#efefef;}.cls-5{clip-path:url(#clip-path);}.cls-6{fill:url(#Безымянный_градиент_3);}.cls-7{clip-path:url(#clip-path-2);}.cls-8{fill:url(#Безымянный_градиент_3-3);}.cls-23,.cls-9{fill:#e6e6e6;}.cls-10,.cls-11,.cls-13,.cls-14,.cls-15,.cls-16,.cls-18,.cls-19,.cls-20,.cls-21,.cls-22,.cls-23,.cls-24,.cls-25,.cls-26,.cls-27,.cls-28,.cls-29,.cls-30,.cls-31,.cls-32,.cls-33,.cls-36,.cls-37,.cls-38,.cls-40,.cls-41,.cls-42,.cls-44,.cls-9{fill-rule:evenodd;}.cls-10{fill:#fddd7a;}.cls-11{fill:#f6b682;}.cls-12{fill:#478dbc;}.cls-13{fill:#005278;}.cls-14{fill:#fbb03b;}.cls-15{fill:#f15a24;}.cls-16{fill:#333;}.cls-17{fill:#6c899c;}.cls-18{fill:#fbbc5a;}.cls-19{fill:#2e2827;}.cls-20{fill:#3e3a39;}.cls-21{fill:#595857;}.cls-22{fill:#568ba4;}.cls-23{mix-blend-mode:multiply;}.cls-24{fill:#e9a66f;}.cls-25{fill:#a95c40;}.cls-26{fill:#fac408;}.cls-27{fill:#eda15d;}.cls-28{fill:#47140c;}.cls-30{fill:#87cff3;}.cls-31{fill:#373332;}.cls-32{fill:#ef8337;}.cls-33{fill:#e67e35;}.cls-34{fill:#0062a3;}.cls-35{fill:#fbe1cd;}.cls-36{fill:#e8470b;}.cls-37{fill:#f5b17a;}.cls-38{fill:#f7c193;}.cls-39{fill:#0071bc;}.cls-40{fill:#f6f3f2;}.cls-41{fill:#eb6b36;}.cls-42{fill:#424040;}.cls-43{fill:#f2f2f2;opacity:0.31;mix-blend-mode:overlay;}.cls-44{fill:#bc6b4e;}</style><clipPath id="clip-path" transform="translate(6.27 -13.48)"><path class="cls-1" d="M177.25,145.18C262.9,105,321.18-46.17,430.18,63.59S462.83,358.29,340,388.92,70.84,373.09,40.29,281.24C-11.92,124.29,119.8,172.14,177.25,145.18Z"/></clipPath><linearGradient id="Безымянный_градиент_3" x1="228.89" y1="305.88" x2="652.17" y2="305.88" gradientTransform="matrix(-1.05, -0.14, 0.13, -0.99, 671, 560.31)" gradientUnits="userSpaceOnUse"><stop offset="0" stop-color="#00bfc2"/><stop offset="0.25" stop-color="#00bbc6"/><stop offset="0.49" stop-color="#00b0d0"/><stop offset="0.73" stop-color="#009be1"/><stop offset="0.97" stop-color="#0080f8"/><stop offset="1" stop-color="#007dfb"/></linearGradient><clipPath id="clip-path-2" transform="translate(6.27 -13.48)"><path class="cls-1" d="M170.33,134.31C256,94.12,314.25-57,423.25,52.72S455.91,347.42,333.1,378,63.91,362.22,33.35,270.37C-18.85,113.42,112.87,161.27,170.33,134.31Z"/></clipPath><linearGradient id="Безымянный_градиент_3-3" x1="217.62" y1="243.74" x2="677.23" y2="243.74" xlink:href="#Безымянный_градиент_3"/></defs><title>2076929</title><g class="cls-2"><g id="OBJECTS"><rect class="cls-3" x="6.27" y="42.52" width="500" height="394"/><path class="cls-4" d="M177.25,145.18C262.9,105,321.18-46.17,430.18,63.59S462.83,358.29,340,388.92,70.84,373.09,40.29,281.24C-11.92,124.29,119.8,172.14,177.25,145.18Z" transform="translate(6.27 -13.48)"/><g class="cls-5"><path class="cls-4" d="M472.38,369.06s-57.46-81-174.27-62S119.2,287.8,157.57,108.8c0,0-160.88,2.19-156.83,124.58C5.65,381.93,314.89,480.14,472.38,369.06Z" transform="translate(6.27 -13.48)"/></g><path class="cls-6" d="M170.33,134.31C256,94.12,314.25-57,423.25,52.72S455.91,347.42,333.1,378,63.91,362.22,33.35,270.37C-18.85,113.42,112.87,161.27,170.33,134.31Z" transform="translate(6.27 -13.48)"/><path class="cls-6" d="M170.33,134.31C256,94.12,314.25-57,423.25,52.72S455.91,347.42,333.1,378,63.91,362.22,33.35,270.37C-18.85,113.42,112.87,161.27,170.33,134.31Z" transform="translate(6.27 -13.48)"/><g class="cls-7"><path class="cls-8" d="M465.45,358.18s-57.46-81-174.27-62S112.26,276.93,150.64,97.93c0,0-160.88,2.19-156.83,124.58C-1.28,371.06,308,469.27,465.45,358.18Z" transform="translate(6.27 -13.48)"/></g><path class="cls-9" d="M436.75,373.82H80.22a4,4,0,0,1-4-4h0a4,4,0,0,1,4-4H436.75a4,4,0,0,1,4,4h0A4,4,0,0,1,436.75,373.82Z" transform="translate(6.27 -13.48)"/><path class="cls-9" d="M476.93,395.8H367.2a4,4,0,0,1-4-4h0a4,4,0,0,1,4-4H476.93a4,4,0,0,1,4,4h0A4,4,0,0,1,476.93,395.8Z" transform="translate(6.27 -13.48)"/><path class="cls-9" d="M166.7,398.79H57a4,4,0,0,1-4-4h0a4,4,0,0,1,4-4H166.7a4,4,0,0,1,4,4h0A4,4,0,0,1,166.7,398.79Z" transform="translate(6.27 -13.48)"/><path class="cls-9" d="M323.16,416.76H213.43a4,4,0,0,1-4-4h0a4,4,0,0,1,4-4H323.16a4,4,0,0,1,4,4h0A4,4,0,0,1,323.16,416.76Z" transform="translate(6.27 -13.48)"/><path class="cls-10" d="M98.43,169.32l-3.2-6.59s-20.33,26.83-19,31.95,7.44,3.78,10.48,1.46,16.65-17.63,16.65-17.63Z" transform="translate(6.27 -13.48)"/><path class="cls-11" d="M70.33,151.27s-10.64-.15-11.28-.12,1.35,10.78,1.35,10.78,10.6.56,10.78,0S70.33,151.27,70.33,151.27Z" transform="translate(6.27 -13.48)"/><path class="cls-10" d="M142.72,164.27l20.79,24.42,32.25,20.38,6.53-4.93c-8.82-6.76-29-21.65-29.57-22.41l-20.31-28.81S141.57,164.34,142.72,164.27Z" transform="translate(6.27 -13.48)"/><rect class="cls-12" x="180.89" y="67.09" width="253.14" height="289.39"/><polygon class="cls-13" points="198.06 82.99 419.72 80.44 422.58 348.21 198.06 348.21 198.06 82.99"/><rect class="cls-3" x="195.2" y="80.44" width="224.52" height="265.22"/><path class="cls-14" d="M287.12,63h28.14l1.54,11.21h28a4.55,4.55,0,0,1,4.53,4.53v26H253v-26a4.55,4.55,0,0,1,4.53-4.53h28L287.12,63Zm14.07,3a3.26,3.26,0,1,0,3.26,3.26A3.26,3.26,0,0,0,301.19,66Z" transform="translate(6.27 -13.48)"/><path class="cls-15" d="M388.41,141.25v14.54a5.71,5.71,0,0,1-5.71,5.71H368.16a5.71,5.71,0,0,1-5.71-5.71V141.25a5.71,5.71,0,0,1,5.71-5.71h14.54A5.71,5.71,0,0,1,388.41,141.25Zm-3.74-7.67H366.19a5.71,5.71,0,0,0-5.71,5.71v18.48a5.71,5.71,0,0,0,5.71,5.71h18.48a5.71,5.71,0,0,0,5.71-5.71V139.28A5.71,5.71,0,0,0,384.68,133.57Z" transform="translate(6.27 -13.48)"/><path class="cls-16" d="M363.55,140.21l11.25,18.21,20-36.37s-21,27.2-21.24,26.66S363.55,140.21,363.55,140.21Z" transform="translate(6.27 -13.48)"/><path class="cls-15" d="M388.41,194.28v14.54a5.71,5.71,0,0,1-5.71,5.71H368.16a5.71,5.71,0,0,1-5.71-5.71V194.28a5.71,5.71,0,0,1,5.71-5.71h14.54A5.71,5.71,0,0,1,388.41,194.28Zm-3.74-7.67H366.19a5.71,5.71,0,0,0-5.71,5.71v18.48a5.71,5.71,0,0,0,5.71,5.71h18.48a5.71,5.71,0,0,0,5.71-5.71V192.31A5.71,5.71,0,0,0,384.68,186.6Z" transform="translate(6.27 -13.48)"/><path class="cls-16" d="M363.55,193.24h0l11.25,18.21,20-36.37h0s-21,27.2-21.24,26.66S363.55,193.24,363.55,193.24Z" transform="translate(6.27 -13.48)"/><path class="cls-15" d="M388.41,247.31v14.54a5.71,5.71,0,0,1-5.71,5.71H368.16a5.71,5.71,0,0,1-5.71-5.71V247.31a5.71,5.71,0,0,1,5.71-5.71h14.54A5.71,5.71,0,0,1,388.41,247.31Zm-3.74-7.67H366.19a5.71,5.71,0,0,0-5.71,5.71v18.48a5.71,5.71,0,0,0,5.71,5.71h18.48a5.71,5.71,0,0,0,5.71-5.71V245.34A5.71,5.71,0,0,0,384.68,239.63Z" transform="translate(6.27 -13.48)"/><path class="cls-16" d="M363.55,246.27h0l11.25,18.21,20-36.37h0s-21,27.2-21.24,26.66S363.55,246.27,363.55,246.27Z" transform="translate(6.27 -13.48)"/><path class="cls-15" d="M388.41,300.34v14.54a5.71,5.71,0,0,1-5.71,5.71H368.16a5.71,5.71,0,0,1-5.71-5.71V300.34a5.71,5.71,0,0,1,5.71-5.71h14.54A5.71,5.71,0,0,1,388.41,300.34Zm-3.74-7.67H366.19a5.71,5.71,0,0,0-5.71,5.71v18.48a5.71,5.71,0,0,0,5.71,5.71h18.48a5.71,5.71,0,0,0,5.71-5.71V298.37A5.71,5.71,0,0,0,384.68,292.66Z" transform="translate(6.27 -13.48)"/><rect class="cls-17" x="207.5" y="127.12" width="130.23" height="2.86"/><rect class="cls-17" x="207.5" y="134.44" width="130.23" height="2.86"/><rect class="cls-17" x="207.5" y="141.75" width="60.74" height="2.86"/><rect class="cls-17" x="207.5" y="179.91" width="130.23" height="2.86"/><rect class="cls-17" x="207.5" y="187.23" width="130.23" height="2.86"/><rect class="cls-17" x="207.5" y="194.54" width="79.66" height="2.86"/><rect class="cls-17" x="207.5" y="232.7" width="130.23" height="2.86"/><rect class="cls-17" x="207.5" y="240.02" width="130.23" height="2.86"/><rect class="cls-17" x="207.5" y="247.33" width="96.99" height="2.86"/><rect class="cls-17" x="207.5" y="285.49" width="130.23" height="2.86"/><rect class="cls-17" x="207.5" y="292.81" width="130.23" height="2.86"/><rect class="cls-17" x="207.5" y="300.12" width="33.71" height="2.86"/><path class="cls-18" d="M339.57,80.57c-19.42,6.17-44,9.86-70.83,9.86q-8,0-15.72-.43v14.74h96.36v-26a4.49,4.49,0,0,0-.28-1.57Q344.57,79,339.57,80.57Z" transform="translate(6.27 -13.48)"/><path class="cls-19" d="M158.62,359.35l4.91,2.66s6.08,3.44,7,3.63,11.5,3.29,11.23,4.06-26.85.55-26.85.55l-.1-7.43Z" transform="translate(6.27 -13.48)"/><path class="cls-19" d="M96.68,357.39l2.4,4.89s5.66,4.18,6.55,4.82,3.41,3.68,2.07,3.69l-20,.17c0-5.47.09-5.37,2.73-9.55Z" transform="translate(6.27 -13.48)"/><path class="cls-20" d="M113.91,238.59a28.75,28.75,0,0,0-.86,3.71c-3.45,16.42-6,63.59-24.86,123.11,3.94-3.19,7.77-3.15,10.88-3.14,17.21-29.64,23.8-62.11,35-98,19,28.73,19.34,88,20.81,102.25,2.92-.27,9.22-1.49,10.69-3.41,3.91-54.68-6.68-105-11.32-122.55C151.27,229.4,123.63,232.55,113.91,238.59Z" transform="translate(6.27 -13.48)"/><polygon class="cls-21" points="118.55 220.59 119.13 229.77 160.53 227.28 160.12 219.64 118.55 220.59"/><path class="cls-22" d="M134.67,152.85c-.05-.49-2.4-5.65-2.4-5.65L111.36,151l1.58,6.55Z" transform="translate(6.27 -13.48)"/><path class="cls-10" d="M152.93,238.95,116,240.48c-9.24,1.65-3.8-29.15-13.66-56.42-3.91-1.83-12.24-13.23-7.87-21l15-7.28,25.91-5.93,15.23,1.74c5.49.79,4.66,18.1,2.18,21.23C146.35,181,160.55,238.63,152.93,238.95Z" transform="translate(6.27 -13.48)"/><path class="cls-23" d="M101.2,170.09l-10,7,3,11,2.63-2.39L100,182.3a14.75,14.75,0,0,1,2.22,1.77c1,1,1.39-5.23,1.25-7.61C103.19,172.09,101.2,170.09,101.2,170.09Z" transform="translate(6.27 -13.48)"/><path class="cls-24" d="M124.77,137.67l5.85,12.92,4.74-.69c2.14,5.81-3.41,7.75-9.59,8.87-6.79,1.23-14.45,1.17-16.32-2.94L113.7,154l-1.85-11.56Z" transform="translate(6.27 -13.48)"/><path class="cls-25" d="M135.63,100.68c.53.62,4.53,4.35,4.15,12.22s-4.25,14.45-4.14,13.82-4.57-22.15-4.57-22.15Z" transform="translate(6.27 -13.48)"/><path class="cls-11" d="M137.31,144.79c-8.18,7.2-26.74,5.92-32.55-3.28s-5.42-36.21-.48-38.89,33-.83,32.7.78C133.21,121,145.49,137.59,137.31,144.79Z" transform="translate(6.27 -13.48)"/><path class="cls-25" d="M105.2,120.18c.77.52,2.59,5.42,2.59,8.81s6.19,10.21,7.89,9.11A22.16,22.16,0,0,1,126.53,134c5.36-.37,7.38.79,8.9.3s3.27-6.77,3.27-6.77,1.12,4.18,1.85,6.77a14.82,14.82,0,0,1,.64,4.69,4.58,4.58,0,0,0-.34-.79,9.19,9.19,0,0,1-.58,4.11c-.85,2.5-1.52,3.47-1.49,3.29a7.48,7.48,0,0,0,0-.91,12.78,12.78,0,0,1-2.8,3.26c-1.8,1.46-3,2.26-3,2.26l.4-1.22-4.66,2.93-.61-1.22-.88,1.37-5-1.19.09.91a24.33,24.33,0,0,1-5.91-1.22,11.85,11.85,0,0,1-2.26-1.25s.75,1.64.19,1.08-2.79-1.14-4.8-2.85a31.8,31.8,0,0,1-2.56-2.32l-.58,1.37a22.79,22.79,0,0,1-2.53-4.33,11.33,11.33,0,0,1,0-8.72c1.31-3.14,1.23-10.46,1.12-11.1s-.69-1.37-.51-1.58S105.2,120.18,105.2,120.18Z" transform="translate(6.27 -13.48)"/><path class="cls-25" d="M102.86,136.58c-2.79-.69-3.67-.82-5.29-3.06-10-13.78-5.08-27.21.62-27,1.63-17.67,39.52-9.94,46.17-4.49-3.84,13-24.26,12.36-37.16,7.21,0,0,.59,4.63-.61,5.66s-1.35,1.13-1.35,1.13,1.61,7.46.38,9.31c-.51.77-3.26,2.79-3.66,5.4A8.57,8.57,0,0,0,102.86,136.58Z" transform="translate(6.27 -13.48)"/><path class="cls-11" d="M101,120.17c2.47-.31,4.9,2.38,5.41,6s-1.07,6.81-3.55,7.12-4.9-2.38-5.41-6S98.5,120.48,101,120.17Z" transform="translate(6.27 -13.48)"/><path class="cls-20" d="M130.49,156.39c-.21-.15-3.66-.89-3.66-.89l-2.56.82-2.2,2.63,3.2,4.64,5.09-1.26Z" transform="translate(6.27 -13.48)"/><path class="cls-26" d="M124.43,156.38c-.51,1-3,8.3-3,8.3l-13.73-8,3.71-5.73Z" transform="translate(6.27 -13.48)"/><polygon class="cls-26" points="133.1 142.02 139.72 147.84 143.89 136.65 138.53 133.73 133.1 142.02"/><path class="cls-11" d="M114.56,222.83c.48.06,5.5,0,5.5,0s8.29,1.48,9.29,1.6,6,2.82,6,2.82a7.76,7.76,0,0,1-3,.7c-2.27.21-2.93-.39-2.93-.39h-3a15.21,15.21,0,0,1,3,2.91,2.67,2.67,0,0,1-.25,2.78,2,2,0,0,1-1.16.27,3.42,3.42,0,0,1-1.27,1.32,8,8,0,0,1-2.37.23,1.94,1.94,0,0,1-1.11,1.18c-1,.49-1.44-.08-1.44-.08A2,2,0,0,1,120,237c-1.18-.12-5.73-6-6.09-7.11s-.61-2.22-.61-2.22Z" transform="translate(6.27 -13.48)"/><path class="cls-27" d="M124.16,120.32c.24,3.92,5.39,9,8.62,9.73-1.66,2.19-5.15,2.84-7.53,2.27,2.63-.74,4.59-1.47,4.59-1.87s-4.76-2.68-5.45-5.61A9.84,9.84,0,0,1,124.16,120.32Z" transform="translate(6.27 -13.48)"/><path class="cls-28" d="M116.16,121.51a2,2,0,0,1,1.6,2.39,2.13,2.13,0,0,1-2.36,1.78,2,2,0,0,1-1.6-2.39A2.13,2.13,0,0,1,116.16,121.51Z" transform="translate(6.27 -13.48)"/><path class="cls-28" d="M131.83,119.11a2,2,0,0,1,1.6,2.39,2.13,2.13,0,0,1-2.36,1.78,2,2,0,0,1-1.6-2.39A2.13,2.13,0,0,1,131.83,119.11Z" transform="translate(6.27 -13.48)"/><path class="cls-25" d="M119.71,119c-2.08.29-9.63,2-9.53,1.62s1.48-1.51,3.87-2.23a18.93,18.93,0,0,1,5.35-.82C120.31,117.62,120.45,119,119.71,119Z" transform="translate(6.27 -13.48)"/><path class="cls-25" d="M126.29,118.75c1.94-.84,9.28-3.36,9-3.6s-2-.54-4.41.1a19.3,19.3,0,0,0-5,2.1C125.1,117.83,125.63,119.11,126.29,118.75Z" transform="translate(6.27 -13.48)"/><path class="cls-27" d="M100.67,130.56c.83,1.54,2.19.81,2.31-.52s-1-1.41-.76-2.38,1.26,0,1.57-1.79C104.48,122,95.66,121.27,100.67,130.56Z" transform="translate(6.27 -13.48)"/><path class="cls-29" d="M132.66,135.77c-3.6.55-7.42,1.16-13.19,1.94.2,2.27,4.48,4.53,8.13,3.83S132.66,135.77,132.66,135.77Z" transform="translate(6.27 -13.48)"/><path class="cls-30" d="M128.15,229.14a6.08,6.08,0,0,1,1.17,1.36,2.32,2.32,0,0,1,.17.44l-.13-2Z" transform="translate(6.27 -13.48)"/><path class="cls-31" d="M99.08,362.27c9.68-16.67,16-34.24,21.66-52.8C125.14,295,129.15,280,134,264.29q1.33,2,2.54,4.22c1,1.86,2,3.81,2.88,5.84,4.2,9.46,7.15,20.62,9.25,31.92l.07.39q.43,2.33.81,4.66.25,1.5.48,3c2.68,17.43,3.58,34.28,4.22,44.72q.09,1.41.17,2.67c.13,1.93.25,3.55.38,4.83a37.33,37.33,0,0,0,6.26-1.19q-.1-1.77-.18-3.69,0-.54,0-1.08,0-.78-.06-1.59c-.46-12.28-.72-28.42-2.54-44.74q-.17-1.5-.35-3-.29-2.33-.62-4.66-.22-1.5-.45-3-.37-2.34-.8-4.66-.28-1.5-.58-3c-2.95-14.55-7.74-28.1-15.69-37.9q-1.4-1.72-2.93-3.29-.84-.85-1.72-1.66s-6.27,18.09-14,38c-5.76,14.79-12.32,30.57-17.73,40.66a135.49,135.49,0,0,1-9.88,16q-2.43,8.64-5.3,17.69C92.14,362.22,96,362.26,99.08,362.27Z" transform="translate(6.27 -13.48)"/><polygon class="cls-20" points="133.19 146.46 131.55 150.1 132.94 168.39 140.91 166.02 136.64 148.67 133.19 146.46"/><path class="cls-32" d="M107.1,157c-.5-1.3-12.56,4.06-11.53,5.6s7.86,7.94,7.88,13.5-1.12,8-1.12,8,3.75,16.85,4.41,22.15,0,24.1,1.59,28.88a9.32,9.32,0,0,0,6.27,6.37c.91.19,39.61-1.94,39.61-1.94s2-1.55,3-5.91-4.52-58.41-4.52-58.41c.16-3.06.31-23.4-2.56-23.8l-11-1.51s.43,7.16-4,12.69-11.25,6.3-17.19,3.41S107.1,157,107.1,157Z" transform="translate(6.27 -13.48)"/><path class="cls-33" d="M122.17,231c-7-7-4-45.94-7-53.93-2.08-5.54-8.48-7.72-13.88-7.19a12.45,12.45,0,0,1,2.15,6.17c0,5.56-1.12,8-1.12,8s3.75,16.85,4.41,22.15,0,24.1,1.59,28.88a9.32,9.32,0,0,0,6.27,6.37c.56.11,15.17-.63,26.48-1.23C141.07,240.23,129.16,238,122.17,231Z" transform="translate(6.27 -13.48)"/><rect class="cls-34" x="72.96" y="122.71" width="31.4" height="224.37" transform="translate(-28.72 2.9) rotate(-8.82)"/><rect class="cls-35" x="90.87" y="344.93" width="31.4" height="10.68" transform="translate(-46.21 7.01) rotate(-8.82)"/><path class="cls-36" d="M91.87,358l31-4.82,1.09,7a7.1,7.1,0,0,1-5.91,8.08l-17,2.64A7.1,7.1,0,0,1,93,365Z" transform="translate(6.27 -13.48)"/><polygon class="cls-37" points="68.91 53.82 81.07 80.98 93.23 108.15 77.72 110.56 62.2 112.97 65.55 83.39 68.91 53.82"/><polygon class="cls-20" points="68.91 53.82 66.81 72.35 76.53 70.84 68.91 53.82"/><polygon class="cls-38" points="81.07 80.98 76.53 70.84 71.22 71.67 76.29 110.78 93.23 108.15 81.07 80.98"/><rect class="cls-39" x="87.08" y="121.62" width="17.14" height="223.6" transform="translate(-28.41 3.95) rotate(-8.82)"/><polygon class="cls-40" points="127.53 329.11 110.59 331.74 110.71 332.49 112.23 342.29 129.17 339.66 127.65 329.86 127.53 329.11"/><path class="cls-41" d="M122.9,353.14,106,355.77l2.17,14,9.94-1.54a7.1,7.1,0,0,0,5.91-8.08Z" transform="translate(6.27 -13.48)"/><polygon class="cls-42" points="71.22 71.67 76.53 70.84 68.91 53.82 71.22 71.67"/><path class="cls-43" d="M111.44,334h0a4,4,0,0,1-4.55-3.34L76.55,132.72a4,4,0,0,1,3.34-4.55h0a4,4,0,0,1,4.55,3.34l30.35,197.93A4,4,0,0,1,111.44,334Z" transform="translate(6.27 -13.48)"/><path class="cls-11" d="M58.76,149.6l4.86-1.74s.82-.38,1.17.2-.65,1.43-1.17,1.94a17.12,17.12,0,0,1-3.07,1.52l-1,2.66a1.14,1.14,0,0,1-1.3-.46C57.29,152.63,58.32,150.72,58.76,149.6Z" transform="translate(6.27 -13.48)"/><path class="cls-11" d="M59.4,152.22l4.86-1.74s.83-.38,1.17.2-.65,1.43-1.17,1.94a17.11,17.11,0,0,1-3.07,1.52l-1,2.66a1.14,1.14,0,0,1-1.3-.46C57.92,155.25,59,153.35,59.4,152.22Z" transform="translate(6.27 -13.48)"/><path class="cls-11" d="M59.5,154.55l4.86-1.74s.82-.38,1.17.2-.65,1.43-1.17,1.94a17.16,17.16,0,0,1-3.07,1.52l-1,2.66a1.14,1.14,0,0,1-1.3-.46C58,157.58,59.06,155.68,59.5,154.55Z" transform="translate(6.27 -13.48)"/><path class="cls-11" d="M59.8,157.34l4.86-1.74s.82-.38,1.17.2-.65,1.43-1.17,1.94a17.12,17.12,0,0,1-3.07,1.52l-.85,2.58a1.27,1.27,0,0,1-1.47-.39C58.32,160.37,59.35,158.46,59.8,157.34Z" transform="translate(6.27 -13.48)"/><path class="cls-11" d="M58.42,152a23.23,23.23,0,0,0-.47-4.74c-.27-.88,1.71-1.07,2.38.2s.19,4.92.19,4.92Z" transform="translate(6.27 -13.48)"/><path class="cls-44" d="M105.67,100.07C111.8,95.47,124,98.3,124,98.3c-.37,0-4.08.85-3.72,1,3.88,1.94,21.67,1.84,20.79,2.5-1.46,1.1-8.35,4.39-8,4.51s3.41.37,3.41.37c-2.62,5.21-18.29,3.21-22.12,1.52,0,0,2.93,2.38,2,2.13a24.66,24.66,0,0,1-8-2.68,14,14,0,0,1-5.79-5.24Z" transform="translate(6.27 -13.48)"/><path d="M378,307.5l8.6-8.6a1.26,1.26,0,0,0,0-1.78l-.75-.75a1.26,1.26,0,0,0-1.78,0l-8.6,8.6-8.6-8.6a1.26,1.26,0,0,0-1.78,0l-.75.75a1.26,1.26,0,0,0,0,1.78l8.6,8.6-8.6,8.6a1.26,1.26,0,0,0,0,1.78l.75.75a1.26,1.26,0,0,0,1.78,0l8.6-8.6,8.6,8.6a1.25,1.25,0,0,0,.89.37h0a1.25,1.25,0,0,0,.89-.37l.75-.75a1.26,1.26,0,0,0,0-1.78Z" transform="translate(6.27 -13.48)"/></g></g></svg>