<?xml version="1.0" encoding="UTF-8"?> <svg xmlns="http://www.w3.org/2000/svg" width="375" height="131" viewBox="0 0 375 131" fill="none"> <rect width="374.366" height="131" fill="#FFDD2D"></rect> <path d="M130.614 56.1163C130.394 55.8926 130.266 55.6878 130.084 55.4034C129.989 55.259 129.886 55.1037 129.773 54.9366C130.087 54.5727 130.353 54.1517 130.554 53.6889L131.357 51.8569L129.378 51.5725C129.045 51.5232 128.507 51.3829 127.877 51.216C126.664 50.8974 125.106 50.4877 123.408 50.3095C123.988 50.0553 124.481 49.5964 124.826 48.9743L125.152 48.3864C125.152 48.3864 125.065 47.5635 124.746 47.3057C124.868 47.0515 124.962 46.7708 125.027 46.4635L125.296 45.1512L124.03 44.7189C123.832 44.6506 123.636 44.6012 123.442 44.5709C123.37 44.332 123.264 44.0778 123.12 43.8085L122.369 42.4317L121.016 43.2244C120.679 43.4217 120.394 43.6493 120.163 43.9033C119.962 43.8655 119.746 43.8465 119.519 43.8465C119.519 43.8465 118.745 43.7592 117.893 44.0703L116.801 42.9362L115.508 41.5557C114.299 40.2622 112.661 39.8792 110.993 40.5164C110.357 39.8792 109.363 39.352 107.821 39.352C107.297 39.352 106.839 39.4165 106.569 39.4505C106.569 39.4505 104.447 39.8375 103.253 40.9716L101.805 40.2812C100.834 41.8098 99.1738 42.2951 99.1738 42.2951C99.06 41.8476 98.8668 41.4304 98.5901 41.0474L98.6847 40.5089C98.6847 40.4936 99.0107 38.6693 100.004 37.1218L101.733 34.4288L99.2836 34.7057C99.2914 34.463 99.2799 34.1748 99.2458 33.8334L99.0259 31.7398L97.1078 32.6082C96.8955 32.7031 96.7173 32.7979 96.5507 32.8851L96.1714 32.0772L95.292 32.5324C95.2048 32.3163 95.0912 32.0697 94.9358 31.7853L93.9235 29.9268L92.4869 31.4781C92.339 31.6374 92.214 31.7853 92.1079 31.9256L91.236 31.0571L90.3563 31.9294C90.2465 31.789 90.1252 31.6412 89.9773 31.4819L88.5256 29.9268L87.5096 31.7928C87.3542 32.0772 87.2442 32.3201 87.1571 32.5362L86.2815 32.0812L85.9023 32.8889C85.7356 32.8018 85.5575 32.7068 85.3451 32.6082L83.4195 31.7435L83.2072 33.8447C83.1731 34.1824 83.1616 34.4668 83.1692 34.7096L80.7166 34.4327L82.449 37.1255C83.4461 38.6693 83.7643 40.4936 83.7643 40.5089L83.8553 41.0474C83.5786 41.4342 83.3815 41.8514 83.2716 42.2991C83.2716 42.2991 81.7023 41.6277 80.652 40.2812L79.1737 40.9866C77.4869 39.8488 76.4406 39.405 74.6211 39.352C73.0783 39.3102 72.0851 39.8792 71.4482 40.5164C69.7764 39.883 68.1426 40.266 66.9373 41.5594C66.9373 41.5594 66.145 42.4204 65.6446 42.94C65.1442 43.4635 64.405 43.8958 64.405 43.8958C64.405 43.8958 63.355 43.6606 62.2745 43.9072C62.0433 43.6531 61.7553 43.4255 61.4141 43.2244L60.0569 42.4317L59.3102 43.8162C59.1661 44.0816 59.0637 44.332 58.9957 44.5709C58.8023 44.6012 58.6052 44.6506 58.408 44.7189L57.1494 45.1587L57.4111 46.4635C57.4754 46.7783 57.5664 47.059 57.6915 47.3131C57.6195 47.4534 57.5552 47.6013 57.5021 47.7569L57.2897 48.3903L57.612 48.978C57.9532 49.5964 58.4421 50.0591 59.026 50.3134C57.3238 50.4916 55.7697 50.9011 54.5528 51.2198C53.9274 51.3829 53.389 51.5269 53.0555 51.5762L51.0691 51.8646L51.5202 52.8885L51.8804 53.7041C52.0851 54.1592 52.3543 54.5802 52.665 54.9444C52.5474 55.1111 52.0471 55.8964 51.8234 56.12L50.819 57.1403L51.7819 58.2023C51.903 58.3313 52.9835 59.4654 54.731 59.4691C55.2086 59.4691 55.6824 59.3859 56.1525 59.2187C56.6188 59.9472 57.1722 60.6865 57.6765 61.0508C56.7476 62.1432 55.6901 63.0914 54.1851 63.8082L52.9267 64.4073L53.4686 65.845C53.8213 66.7134 54.5073 67.6654 55.834 68.0296C55.5498 68.8791 55.4134 69.6833 55.2921 70.4001C55.0077 72.1031 54.8863 72.8086 53.389 73.3358L52.0433 73.8061L52.4301 75.1791C52.7408 76.2979 53.2071 77.0376 53.7113 77.5269L52.8166 78.5129C52.8166 78.5129 54.9396 80.1061 57.0206 80.2994C57.0508 80.3031 58.8251 80.417 59.6211 79.4005C59.9396 80.5535 60.4437 81.6156 60.9023 82.5789C61.8424 84.5588 62.3428 85.7306 61.7136 86.8003L60.2921 89.2127L63.0858 89.0951C64.3064 89.0458 65.4399 88.9699 66.4217 88.7271C66.4217 88.7801 66.4179 88.8296 66.4141 88.8789L66.1867 90.9497L68.6355 90.4338C68.8933 90.3579 69.1358 90.2556 69.3557 90.138C70.872 91.913 73.4498 93.2974 76.922 93.2974H77.1229L73.1313 94.936L76.0389 96.4494C77.9531 97.4469 80.0797 98.2813 82.5059 98.9905L82.1684 100.155L83.6279 100.583C84.4694 100.83 87.5134 101.638 91.2208 101.638C94.9281 101.638 97.9683 100.83 98.8138 100.583L100.269 100.155L99.9319 98.9942C102.362 98.2852 104.489 97.4506 106.403 96.4531L109.31 94.9397L105.315 93.3014H105.516C108.988 93.3014 111.562 91.9169 113.078 90.1419C113.298 90.2595 113.541 90.3617 113.798 90.4377L116.247 90.9536L116.024 88.8864C116.02 88.8371 116.016 88.784 116.016 88.7308C116.994 88.9738 118.131 89.0458 119.348 89.0988L122.142 89.2164L120.728 86.8079C120.095 85.7384 120.599 84.5662 121.535 82.5864C121.994 81.6231 122.498 80.561 122.817 79.4081C123.355 79.8176 123.935 80.0642 124.511 80.1933C124.511 80.1933 124.958 80.326 125.387 80.3373C126.623 80.3751 127.24 80.0226 128.09 79.4877L129.633 78.5166L128.73 77.5306C129.235 77.0451 129.701 76.3057 130.012 75.1906L130.402 73.8136L129.052 73.3433C127.551 72.8162 127.434 72.1106 127.15 70.4077C127.028 69.6908 126.896 68.8831 126.607 68.0371C127.934 67.6691 128.617 66.7173 128.969 65.8524L129.507 64.4113L128.249 63.812C126.744 63.0951 125.686 62.1469 124.754 61.0545C125.262 60.6906 125.815 59.9509 126.285 59.2227C126.752 59.3896 127.225 59.4691 127.707 59.4728C129.454 59.4728 130.538 58.339 130.656 58.21L131.619 57.1479L130.614 56.1163Z" fill="white"></path> <path fill-rule="evenodd" clip-rule="evenodd" d="M78.9004 74.8073V63.2392C78.9004 62.162 78.5895 61.0847 78.2181 60.095H87.1908C88.0134 61.225 89.5069 61.9837 91.2204 61.9837C92.9262 61.9837 94.4197 61.225 95.2462 60.095H104.219C103.84 61.0888 103.533 62.162 103.533 63.2392V74.8073H78.9004ZM91.2166 90.6159C89.962 89.3681 89.0672 89.2315 85.6859 89.2315C81.6448 89.2315 78.9004 86.861 78.9004 83.0718V75.4861H103.529V83.0718C103.529 86.861 100.788 89.2315 96.7397 89.2315C93.3621 89.2278 92.4674 89.3681 91.2166 90.6159Z" fill="#FFDD2D"></path> <path d="M80.3292 92.0459V94.3557L78.3239 95.1637C80.0184 95.9337 82.1222 96.6998 84.5939 97.2648L85.731 93.5593C83.305 93.0623 81.6143 92.5428 80.3292 92.0459Z" fill="white"></path> <path d="M91.2178 95.1752C88.8486 95.1752 86.8548 94.9285 86.0586 94.7466L84.8569 98.6342C86.7447 99.0969 88.9547 99.4383 91.2178 99.4383C93.4734 99.4383 95.6835 99.1006 97.5787 98.6342L96.3734 94.7466C95.5773 94.9324 93.591 95.1752 91.2178 95.1752Z" fill="white"></path> <path d="M102.104 92.0459C100.815 92.5428 99.1283 93.0585 96.7021 93.563L97.8432 97.2686C100.319 96.7035 102.415 95.9374 104.109 95.1674L102.108 94.3595V92.0459H102.104Z" fill="white"></path> <path d="M76.13 54.7814C79.2687 53.0859 86.9411 49.3538 81.7402 45.3296C81.0315 44.7835 80.2504 44.2905 79.5947 43.6797C78.7833 44.3055 79.8979 45.8607 80.1784 46.4295C80.1784 46.4295 78.4462 46.6041 78.0329 46.6041C75.3568 46.5926 72.5515 45.0072 73.973 41.9692C72.9078 42.1891 72.7789 43.2132 72.4529 44.0894C71.7704 43.6267 70.5842 42.6329 69.6705 42.7732C70.4136 45.1515 73.541 47.2945 75.9669 47.7797C73.5144 49.1149 68.9655 50.1085 66.5733 47.2337C64.8942 50.4841 67.2331 51.842 69.5265 53.5448C60.7963 57.5311 62.0852 62.003 56.3575 65.5227C57.1005 65.8717 60.4135 65.1701 60.7092 65.1283C59.4659 66.7402 58.8858 67.4229 58.522 68.208C58.1732 68.9439 58.0177 69.7744 57.6729 71.5647C57.4037 72.9795 56.9109 74.3904 55.1899 75.3273C55.8646 76.5485 57.3619 75.5926 57.9874 75.4296C57.9041 75.5585 57.6917 77.0301 57.1308 77.7396C60.0723 77.5497 58.7114 71.3448 61.6532 72.839C62.4832 73.2563 62.7334 74.2349 62.3506 75.0351C60.4173 79.0253 64.8109 82.5413 64.572 86.0381C65.6522 86.0306 66.7705 86.0001 67.4757 84.5401C67.8435 85.2682 68.412 86.2924 68.7303 87.2784L69.61 85.7802C70.1519 88.2608 72.4643 90.5517 75.5879 90.7565C74.0981 88.3972 75.8837 85.1773 72.2633 81.7523C72.7145 81.3881 73.7568 80.6865 74.1284 80.2087C69.6857 80.7319 65.0496 77.216 67.1534 75.5472C68.5295 74.4587 69.1322 76.7192 71.2552 76.3397L70.4248 75.6231C70.7167 75.3347 71.0502 74.9593 71.3953 74.6749C70.4931 74.5647 69.5075 73.9882 69.5075 73.9882L70.0458 73.0971C64.8411 73.0894 64.7083 69.1071 66.8237 68.9477C67.8168 68.8757 69.1019 70.7074 72.3051 70.3245C71.8956 69.8314 71.7326 69.0842 71.5393 68.5343C72.3126 68.4621 73.2224 68.4697 73.9541 68.1133C72.3885 67.9122 71.9942 67.3851 70.6903 66.3988L72.2028 65.8453C70.008 64.7488 70.1407 62.8413 70.0724 60.8537C71.2208 61.5136 72.5705 62.5377 74.011 62.0637C74.352 61.9498 74.572 61.7904 74.5794 61.434C72.5251 60.6111 71.2059 57.444 76.13 54.7814ZM72.3809 55.0925C69.6326 58.0319 70.8228 59.7918 71.3765 60.3341C70.3528 60.114 68.8252 58.8093 69.1739 57.5463C68.8479 57.9372 68.5145 58.3619 68.1732 58.798C67.4908 59.7083 66.8806 60.5996 66.3385 61.4643C65.5044 63.9449 67.0321 66.5052 69.6326 67.6392C66.7439 67.2142 65.4476 64.6428 65.4553 63.0043C64.0754 65.6138 63.4159 67.9957 63.4764 69.9945C63.503 70.7379 63.5675 71.432 63.6661 72.0882C64.3293 73.3473 65.3945 73.8101 67.2936 74.0416C65.5689 74.1514 64.6553 74.0717 63.9048 73.2829C65.0798 78.3387 70.5765 82.7156 72.8129 86.463C70.5727 83.55 65.9366 79.2112 64.3143 76.0744C64.1892 77.2085 64.4924 80.1138 65.9024 81.9002C63.8252 79.856 63.6621 76.7611 63.7987 74.948C63.2718 73.6433 62.9381 72.1868 62.8926 70.5293C62.851 69.0044 62.9571 67.6808 63.1883 66.4937C61.8768 68.3598 59.9813 69.0805 59.0488 71.9213C59.2307 68.2573 61.9639 68.2005 64.0108 63.7516C64.8031 61.8057 65.9557 60.1255 67.2293 58.2215C65.6107 58.7526 64.3976 59.1317 62.525 61.1836C63.8555 58.0356 71.5431 54.497 75.0648 51.072C74.0071 51.296 69.6895 51.4058 67.8965 50.2073C71.1451 51.0872 78.3742 50.0819 81.1035 48.216C79.2194 50.928 75.1179 51.0834 70.1254 56.4768C70.7623 55.9685 71.6113 55.4565 72.3809 55.0925Z" fill="white"></path> <path d="M124.758 71.5643C124.413 69.7743 124.261 68.9437 123.913 68.2078C123.553 67.4226 122.969 66.74 121.722 65.1281C122.017 65.1696 125.338 65.8715 126.077 65.5225C120.349 62.0027 121.638 57.5309 112.904 53.5447C115.198 51.8417 117.537 50.4839 115.857 47.2296C113.465 50.1083 108.917 49.1147 106.464 47.7758C108.894 47.2902 112.018 45.151 112.76 42.7692C111.843 42.6289 110.656 43.6227 109.974 44.0815C109.648 43.2054 109.523 42.1814 108.458 41.9575C109.879 44.9994 107.07 46.5848 104.39 46.5961C103.981 46.5961 102.252 46.4218 102.252 46.4218C102.529 45.8529 103.644 44.2978 102.829 43.672C102.173 44.2863 101.399 44.7756 100.687 45.3219C95.4821 49.3461 103.162 53.082 106.301 54.7736C111.218 57.436 109.91 60.6031 107.851 61.4148C107.859 61.7713 108.079 61.9305 108.424 62.0444C109.857 62.5225 111.214 61.4983 112.355 60.8344C112.29 62.822 112.427 64.7336 110.232 65.826L111.741 66.3796C110.437 67.3658 110.046 67.8929 108.481 68.094C109.209 68.4504 110.126 68.443 110.895 68.515C110.698 69.0651 110.528 69.8122 110.126 70.3052C113.333 70.6844 114.622 68.8563 115.607 68.9285C117.715 69.0878 117.59 73.0703 112.381 73.0777L112.92 73.9691C112.92 73.9691 111.934 74.5456 111.028 74.6557C111.373 74.9363 111.71 75.3154 112.002 75.6039L111.172 76.3206C113.291 76.7001 113.898 74.4395 115.274 75.5279C117.377 77.1968 112.745 80.7128 108.299 80.1894C108.674 80.6672 109.716 81.3728 110.168 81.7367C106.544 85.1579 108.325 88.382 106.843 90.7449C109.959 90.5361 112.271 88.2454 112.821 85.7648L113.7 87.2631C114.015 86.2768 114.591 85.2528 114.952 84.5247C115.653 85.9849 116.779 86.0152 117.863 86.0227C117.616 82.5257 122.006 79.0098 120.08 75.0198C119.694 74.2232 119.944 73.2446 120.774 72.8236C123.723 71.3293 122.355 77.5345 125.3 77.724C124.735 77.0147 124.527 75.5431 124.447 75.4143C125.069 75.5773 126.563 76.5332 127.237 75.308C125.528 74.3902 125.035 72.9791 124.758 71.5643ZM119.25 66.4896C119.481 67.6806 119.599 69.0005 119.546 70.5253C119.497 72.1827 119.167 73.639 118.64 74.9437C118.772 76.7568 118.613 79.8518 116.536 81.8961C117.942 80.1059 118.249 77.2043 118.124 76.0703C116.494 79.207 111.862 83.5461 109.618 86.4589C111.858 82.7116 117.355 78.3309 118.534 73.2788C117.775 74.0641 116.87 74.1473 115.141 74.0373C117.036 73.8059 118.101 73.3434 118.765 72.0839C118.864 71.4317 118.928 70.7337 118.955 69.9906C119.019 67.9916 118.356 65.6096 116.976 63.0002C116.987 64.6388 115.691 67.2103 112.798 67.635C115.391 66.4972 116.923 63.937 116.092 61.4604C115.554 60.5955 114.948 59.7003 114.258 58.7941C113.917 58.3578 113.583 57.9331 113.253 57.5424C113.602 58.8053 112.074 60.1101 111.051 60.3302C111.608 59.7877 112.795 58.028 110.05 55.0882C110.82 55.4525 111.669 55.9645 112.309 56.4651C107.317 51.0718 103.219 50.92 101.327 48.2044C104.061 50.0706 111.29 51.0793 114.534 50.1956C112.745 51.3942 108.424 51.2841 107.366 51.0603C110.888 54.4853 118.583 58.0239 119.91 61.1722C118.037 59.1202 116.82 58.7409 115.209 58.2098C116.487 60.1176 117.631 61.794 118.424 63.7399C120.475 68.1888 123.211 68.2419 123.39 71.9096C122.457 69.0763 120.565 68.3557 119.25 66.4896Z" fill="white"></path> <path d="M95.2433 60.0911C94.4207 61.2214 92.9235 61.9801 91.2212 61.9801C90.8232 61.9801 90.4405 61.9345 90.0765 61.8662C90.1787 62.3328 90.4176 62.8143 90.9142 63.2278C90.7134 64.5818 91.2971 65.8487 92.7491 66.1786C92.9045 66.869 93.3289 67.3886 94.0492 67.6352L93.037 68.8034C92.6468 69.2508 92.1387 69.395 91.7293 69.3418L87.2108 68.8298C87.4078 68.329 86.8848 67.7488 85.4518 67.9954L87.226 63.0269L86.1454 60.7247L84.0948 62.4768L83.9431 67.6883L83.0597 67.2595C81.9225 66.7665 81.5853 68.8412 82.6694 68.8488L83.1053 68.8527C83.075 69.065 83.1434 69.3001 83.3137 69.3759C83.109 69.4594 83.0485 69.8424 83.3025 69.979C83.0448 70.1043 83.0067 70.4987 83.2151 70.6694C82.9915 71.0524 82.9499 71.8831 83.7422 72.0916C84.3942 72.2622 84.8035 71.5644 84.9363 71.1586L91.9681 73.3357C92.9575 73.6203 93.6702 73.4609 94.4965 72.7364L96.3313 71.1321C96.1 72.1828 96.4754 73.127 97.2751 73.4419C97.2751 73.4419 97.1501 74.4052 97.1994 74.8034L99.6597 74.8074H103.534V63.2392C103.534 62.1619 103.841 61.0849 104.22 60.0911H99.6597H95.2433Z" fill="white"></path> <path d="M84.7128 79.5565L84.8494 79.7271C85.0388 79.9622 85.1525 79.9055 85.3687 79.7801L85.6869 79.6095C85.888 79.4577 87.1958 79.9585 87.2678 78.8698C87.4118 79.6815 86.4452 81.3921 87.0289 82.3478L87.8137 83.6337L85.2511 83.6715C84.9707 83.6715 84.8228 83.8424 84.747 83.9941L84.0761 85.386C83.9017 85.754 83.9129 86.1331 84.1329 86.3873L84.5876 86.8994C84.5876 86.8994 84.9592 86.5846 85.0805 86.1712L84.8795 85.9625C84.7128 85.8033 84.7128 85.6515 84.8038 85.4543L85.217 84.597C85.3761 84.2595 85.5393 84.1875 85.9031 84.2746L87.9767 84.7222C88.1284 84.7602 88.3747 84.8322 88.5225 84.5781C88.7766 84.1267 89.2239 84.0965 89.6787 84.1686C90.816 84.3392 93.4429 84.6123 94.3792 83.5161C95.4785 84.9764 97.628 84.9764 97.4877 85.7425L97.0328 88.2534H97.7151L98.1321 85.6857C98.1776 85.386 98.3633 84.9764 98.0411 84.7449C97.9084 84.6426 97.8478 84.5896 97.5482 84.0737C97.158 83.3909 97.1767 82.3668 96.8015 81.4831C97.158 81.0621 97.5445 80.9181 97.882 80.9976C98.64 81.1834 98.8449 82.4922 99.9214 83.5578C99.8001 83.0838 99.7471 82.5642 99.4931 82.1127C99.4931 82.1127 100.24 82.6931 100.433 83.372C100.554 83.7969 100.679 84.1078 101.062 84.3051C101.316 84.3959 101.62 84.2746 101.923 83.9107C101.923 83.9107 101.214 82.9017 100.695 82.2418C99.9819 81.3352 99.0306 80.4249 97.7341 80.5312C97.3246 80.5654 96.9305 80.7512 96.555 80.975C95.0805 80.1481 93.9358 81.0243 93.4809 81.0243L90.7212 80.8612C90.179 80.827 89.7508 80.1974 89.7508 80.1974C89.6826 77.8611 87.8061 76.9319 87.1579 76.9319C87.1579 76.9319 87.2185 76.5108 87.0479 76.3628L86.4717 77.0872L84.8721 76.5031L86.1267 77.5311L84.7659 79.1128C84.6257 79.2681 84.6447 79.473 84.7128 79.5565Z" fill="white"></path> <path d="M82.9049 82.8373C82.5181 83.137 82.5372 83.5541 82.7685 84.0206L82.9998 84.4532L83.6025 83.9941L83.4661 83.6982C83.3675 83.4895 83.3712 83.2772 83.5418 83.1446L84.4061 82.4923C84.6487 82.3139 84.7244 82.2949 84.9823 82.3329L86.8057 82.7159C86.8057 82.7159 86.529 82.3139 86.4379 81.9043L84.7207 81.6767C84.4781 81.6463 84.3302 81.7489 84.118 81.9119L82.9049 82.8373Z" fill="white"></path> <path d="M94.5641 88.2532H95.2541L96.3611 85.5263C96.3989 85.4314 96.4519 85.3897 96.4936 85.3099C95.997 85.1127 95.7051 84.9762 95.292 84.7373C95.5687 85.109 95.7847 85.2684 95.671 85.6135L94.5641 88.2532Z" fill="white"></path> <path d="M95.1521 51.3678L96.4297 44.021L91.5889 45.6671V53.2414L95.1521 51.3678ZM92.4076 46.4105L95.6185 45.2271C95.6185 45.2271 94.993 45.7354 94.2463 46.2475C93.5828 46.7063 92.4076 47.1956 92.4076 47.1956V46.4105ZM92.4076 48.1894L95.3455 47.1387C95.3455 47.1387 94.993 47.5104 94.25 48.0225C93.5867 48.4774 92.4115 48.967 92.4115 48.967V48.1894H92.4076ZM92.4076 50.0781L94.993 49.0846C94.993 49.0846 94.993 49.3992 94.2463 49.9075C93.5828 50.3666 92.4076 50.8557 92.4076 50.8557V50.0781Z" fill="white"></path> <path d="M86.5389 57.865L86.645 58.0356H87.6419L87.6534 58.2101C87.6648 58.377 87.7027 58.5476 87.7595 58.7222C87.9149 59.1963 88.2219 59.6932 88.7148 60.0952C89.2871 60.5579 90.1137 60.8916 91.213 60.8916C93.5974 60.8916 94.674 59.3481 94.7762 58.2101L94.7838 58.0356H95.7846L95.8907 57.865C96.8308 56.3934 97.9794 54.7587 99.3137 54.5234L95.6746 52.4109L91.213 54.8383L86.7473 52.4109L83.112 54.5234C84.4465 54.7548 85.595 56.3934 86.5389 57.865Z" fill="white"></path> <path d="M90.8377 53.2414V45.6671L86.0043 44.021L87.2742 51.3678L90.8377 53.2414ZM90.0226 50.8633C90.0226 50.8633 88.8475 50.3703 88.1841 49.9151C87.4372 49.4067 87.4372 49.0883 87.4372 49.0883L90.0263 50.0818V50.8633H90.0226ZM90.0226 46.4105V47.1956C90.0226 47.1956 88.8475 46.7063 88.1841 46.2475C87.4335 45.7354 86.8041 45.2271 86.8041 45.2271L90.0226 46.4105ZM90.0226 48.1894V48.9707C90.0226 48.9707 88.8475 48.4814 88.1841 48.0262C87.4335 47.5142 87.0848 47.1425 87.0848 47.1425L90.0226 48.1894Z" fill="white"></path> <path d="M91.2173 40.782C88.4539 40.782 86.3804 41.6885 85.9292 42.7504L91.2173 44.8402L96.4978 42.7504C96.0505 41.6885 93.9808 40.782 91.2173 40.782Z" fill="white"></path> <path d="M91.2172 37.7481C93.2529 37.7481 95.2923 38.3664 96.6646 39.1666C96.8882 38.427 97.1271 37.8999 97.4531 37.2968L96.2022 37.4902L95.19 35.3283L93.2985 36.3333L91.2172 34.2739L89.1325 36.3333L87.2447 35.3283L86.2249 37.4902L84.9738 37.2968C85.2998 37.8999 85.535 38.427 85.7661 39.1666C87.1424 38.3664 89.174 37.7481 91.2172 37.7481Z" fill="white"></path> <path d="M125.713 54.3986C126.396 54.3115 126.945 54.0839 127.616 53.5832C126.172 53.2002 123.147 52.1041 120.565 52.5971C119.712 52.711 119.239 53.0561 119.542 53.2533C120.929 54.1749 122.643 56.3104 123.89 58.8022C124.985 57.4406 124.527 55.6541 124.296 55.142C126.479 56.4582 127.051 57.0991 128.063 56.849C127.521 56.0182 126.759 55.2711 125.713 54.3986Z" fill="white"></path> <path d="M58.5442 58.7981C59.7913 56.3061 61.5047 54.1708 62.8959 53.2492C63.2067 53.0518 62.7253 52.7067 61.88 52.5928C59.2947 52.1036 56.2621 53.196 54.8178 53.5792C55.4963 54.0797 56.0347 54.3073 56.7246 54.3946C55.6746 55.2707 54.9126 56.0141 54.3705 56.8447C55.3902 57.0951 55.9589 56.454 58.1386 55.138C57.915 55.6539 57.4524 57.4365 58.5442 58.7981Z" fill="white"></path> <path fill-rule="evenodd" clip-rule="evenodd" d="M73.6821 81.927C74.6865 81.1306 75.5206 80.7323 75.4789 78.8017C73.9702 79.5753 69.6904 79.5338 67.9012 77.0684C67.3969 76.3668 67.9354 76.014 68.4242 76.5678C69.6485 77.956 71.9156 77.3264 72.742 76.9281C72.6092 76.4502 72.2416 75.8281 71.9345 75.5626C72.2454 75.2592 73.121 74.804 73.2991 74.0228C72.8328 73.7686 71.017 73.5865 71.017 73.5865C71.3089 73.306 71.673 72.9151 71.4531 71.8722C69.5994 72.4411 67.306 71.6675 66.7867 70.9809C66.275 70.3057 66.798 69.6724 67.2302 70.1199C68.155 71.091 72.7116 72.2022 74.4061 70.5143C73.7767 70.34 73.0832 69.7787 72.9581 69.4297C74.5274 69.2704 75.7783 68.3449 75.8807 67.1918C75.0125 67.1918 73.375 67.1274 72.814 66.7102C73.5646 66.4333 74.0422 66.1602 74.2811 65.3182C71.4113 65.1436 71.1839 63.0121 71.1688 62.6595C73.0376 63.7365 76.328 63.2586 75.4751 60.6037C73.9209 60.5203 72.3552 58.0056 76.6275 55.6959C80.5129 53.5908 84.9293 51.3227 84.5388 47.5866C84.2848 45.1971 80.3538 43.5662 79.8535 42.3563C78.212 43.1377 77.8822 44.0442 78.6214 45.5651C78.6214 45.5651 74.9632 45.9292 74.6753 43.6762C74.5503 42.6674 75.225 41.7229 75.9489 40.9985C75.5394 40.9985 72.7835 40.2588 71.9534 42.5043C70.4106 41.45 69.0877 41.4878 68.0489 42.6029C69.7093 43.589 70.7366 46.9723 73.4812 47.9698C71.5289 49.028 68.3712 48.5843 66.5289 45.3299C64.7852 47.9583 63.7807 50.5604 67.5221 53.3404C60.7176 56.439 60.7669 62.3636 54.8457 65.1854C55.4447 66.7973 56.7108 66.7973 58.3257 66.5472C55.7669 69.8735 57.9466 73.3551 53.8943 74.7775C54.2733 76.1354 55.0354 77.22 56.5289 76.8219C56.1044 77.4857 55.8239 77.4704 55.1642 78.1986C57.378 79.5944 60.0051 78.5855 60.6002 74.1061C60.7063 73.306 61.8056 73.8066 61.4266 74.5917C58.9018 79.8145 65.2855 83.7438 63.0262 87.5746C65.0163 87.491 66.5364 87.3357 67.3629 86.6643C67.7685 87.4685 68.0149 88.2649 67.9239 89.0499C69.0231 88.8262 69.4249 88.1777 69.5008 87.4266C70.221 89.5317 72.7987 91.7809 76.9232 91.7809C74.7358 88.6556 76.7715 85.4883 73.6821 81.927ZM69.6107 85.7768L68.7314 87.2749C68.4167 86.2888 67.8442 85.2647 67.4766 84.5365C66.7678 85.9967 65.6495 86.0272 64.5728 86.0347C64.8117 82.5377 60.4181 79.0218 62.3515 75.0317C62.7382 74.2352 62.4841 73.2567 61.654 72.8357C58.7087 71.3412 60.0732 77.5462 57.1316 77.7359C57.6927 77.0267 57.9049 75.5551 57.9884 75.4261C57.3628 75.5892 55.8655 76.5449 55.1907 75.3237C56.9117 74.387 57.4045 72.9759 57.6737 71.5611C58.0149 69.7709 58.1741 68.9404 58.519 68.2046C58.883 67.4194 59.463 66.7368 60.7063 65.1249C60.4106 65.1664 57.1013 65.8683 56.3545 65.5193C62.0823 61.9993 60.7934 57.5277 69.5235 53.5415C67.2339 51.8385 64.895 50.4806 66.5706 47.2301C68.9626 50.105 73.5078 49.1115 75.964 47.7763C73.538 47.2908 70.4106 45.1518 69.6714 42.7697C70.585 42.6294 71.7715 43.6232 72.45 44.0859C72.7798 43.206 72.9088 42.1857 73.9739 41.9658C72.5524 45.0038 75.3576 46.589 78.034 46.6006C78.4508 46.6006 80.1795 46.4261 80.1795 46.4261C79.9028 45.8571 78.7844 44.3021 79.5956 43.6762C80.2515 44.2908 81.0322 44.7801 81.7413 45.3262C86.9459 49.3541 79.2696 53.0862 76.1309 54.7816C71.2066 57.4443 72.5258 60.6152 74.5805 61.4231C74.5728 61.7796 74.3531 61.9388 74.0119 62.0527C72.5714 62.5305 71.2218 61.5026 70.0734 60.8427C70.1414 62.8301 70.005 64.7417 72.2037 65.8339L70.691 66.384C71.9914 67.3738 72.3895 67.8974 73.9551 68.1023C73.2233 68.4587 72.3174 68.4511 71.5402 68.5233C71.7373 69.0731 71.8967 69.8202 72.3059 70.3135C69.1028 70.6927 67.8178 68.8645 66.8246 68.9365C64.7094 69.0958 64.842 73.0783 70.0467 73.086L69.5085 73.9772C69.5085 73.9772 70.494 74.5539 71.4001 74.6637C71.0551 74.9443 70.7215 75.3237 70.4296 75.6119L71.2596 76.3289C69.1333 76.7081 68.5343 74.4475 67.1543 75.5362C65.0506 77.205 69.6866 80.721 74.1294 80.1974C73.7579 80.6755 72.7116 81.3808 72.2643 81.745C75.8844 85.1662 74.099 88.39 75.5888 90.753C72.4653 90.5482 70.1529 88.2534 69.6107 85.7768Z" fill="black"></path> <path fill-rule="evenodd" clip-rule="evenodd" d="M63.8977 73.2833C64.6522 74.0684 65.5619 74.1518 67.2867 74.0417C65.3875 73.8106 64.3223 73.3479 63.659 72.0886C63.5642 71.4363 63.4997 70.7383 63.4731 69.9949C63.4126 67.9961 64.0721 65.6141 65.452 63.0046C65.4445 64.6394 66.7371 67.2109 69.6295 67.6395C67.0289 66.5017 65.5013 63.9416 66.3351 61.4647C66.8772 60.6 67.4877 59.705 68.17 58.7986C68.5112 58.3623 68.8447 57.9376 69.1707 57.5468C68.822 58.8098 70.3497 60.1145 71.3731 60.3347C70.8197 59.7921 69.6295 58.036 72.3776 55.0968C71.612 55.4607 70.7628 55.9727 70.1184 56.4735C75.107 51.08 79.2123 50.9283 81.0964 48.2126C78.367 50.0786 71.1382 51.0875 67.8894 50.2038C69.6825 51.4025 74.0003 51.2923 75.0577 51.0687C71.54 54.4937 63.8524 58.0323 62.518 61.1803C64.3905 59.1247 65.6036 58.749 67.2261 58.2219C65.9486 60.1297 64.8 61.8063 64.0078 63.7517C61.9608 68.1971 59.2239 68.254 59.0456 71.9178C59.9782 69.077 61.8735 68.3563 63.1852 66.4903C62.9538 67.6812 62.8439 69.0011 62.8857 70.5257C62.9312 72.1835 63.2647 73.6398 63.7916 74.9445C63.659 76.7574 63.8181 79.8524 65.8956 81.8967C64.4854 80.1104 64.1821 77.205 64.3072 76.0711C65.9333 79.2076 70.5696 83.5467 72.8099 86.4597C70.5696 82.716 65.0767 78.3391 63.8977 73.2833Z" fill="black"></path> <path fill-rule="evenodd" clip-rule="evenodd" d="M115.213 58.2215C116.824 58.7524 118.041 59.1279 119.913 61.1836C118.587 58.0356 110.888 54.4968 107.37 51.072C108.427 51.2921 112.749 51.4056 114.538 50.2072C111.293 51.091 104.064 50.0821 101.331 48.2158C103.219 50.9316 107.32 51.0834 112.313 56.4767C111.672 55.9762 110.823 55.4642 110.054 55.0999C112.798 58.0394 111.612 59.7993 111.054 60.3416C112.078 60.1217 113.605 58.817 113.257 57.554C113.587 57.9445 113.92 58.3695 114.261 58.8055C114.947 59.7158 115.554 60.6072 116.096 61.4719C116.93 63.9524 115.398 66.5125 112.805 67.6466C115.698 67.2218 116.994 64.6465 116.979 63.0118C118.363 65.6213 119.022 68.003 118.962 70.002C118.935 70.7454 118.871 71.4395 118.772 72.0957C118.105 73.3548 117.04 73.8176 115.144 74.0489C116.873 74.1553 117.779 74.0755 118.537 73.2905C117.358 78.3463 111.865 82.7233 109.621 86.4706C111.865 83.5576 116.494 79.2185 118.128 76.0821C118.253 77.216 117.95 80.1213 116.539 81.9078C118.617 79.8635 118.776 76.7684 118.643 74.9554C119.166 73.6507 119.496 72.1944 119.549 70.5367C119.599 69.0121 119.481 67.6884 119.254 66.5013C120.569 68.3673 122.461 69.088 123.397 71.9288C123.219 68.2612 120.482 68.2041 118.431 63.7589C117.635 61.802 116.49 60.1254 115.213 58.2215Z" fill="black"></path> <path fill-rule="evenodd" clip-rule="evenodd" d="M124.113 66.5387C125.724 66.7929 126.99 66.793 127.593 65.181C121.672 62.359 121.721 56.4385 114.917 53.3359C118.658 50.5597 117.65 47.954 115.91 45.3255C114.071 48.5795 110.902 49.0236 108.958 47.9652C111.694 46.9677 112.729 43.5846 114.39 42.5983C113.351 41.4834 112.024 41.4454 110.481 42.4997C109.648 40.2545 106.895 40.9941 106.482 40.9941C107.203 41.7148 107.885 42.6591 107.756 43.6719C107.472 45.9246 103.814 45.5607 103.814 45.5607C104.553 44.0396 104.223 43.1331 102.582 42.3519C102.081 43.5618 98.154 45.1927 97.8962 47.5823C97.502 51.3182 101.926 53.5863 105.808 55.6912C110.08 58.0011 108.514 60.5195 106.964 60.5992C106.103 63.2542 109.394 63.732 111.266 62.655C111.259 63.0075 111.02 65.1393 108.15 65.3137C108.393 66.1558 108.867 66.4288 109.617 66.7056C109.056 67.1266 107.419 67.1874 106.554 67.1874C106.657 68.3403 107.911 69.2696 109.481 69.4251C109.356 69.7741 108.658 70.3354 108.033 70.51C109.727 72.1976 114.284 71.0863 115.209 70.1155C115.633 69.6677 116.152 70.3013 115.645 70.9765C115.121 71.6667 112.832 72.4406 110.974 71.8678C110.762 72.907 111.118 73.3015 111.41 73.5821C111.41 73.5821 109.594 73.7641 109.124 74.0182C109.303 74.7996 110.182 75.2509 110.489 75.5581C110.178 75.8237 109.81 76.4458 109.678 76.9236C110.512 77.3256 112.779 77.9514 113.996 76.5634C114.488 76.0133 115.027 76.3623 114.522 77.0638C112.733 79.5292 108.453 79.5673 106.941 78.7973C106.899 80.7278 107.733 81.1261 108.738 81.9226C105.645 85.4841 107.688 88.651 105.5 91.7688C109.621 91.7688 112.199 89.5195 112.919 87.4146C113.002 88.1617 113.397 88.8142 114.492 89.038C114.409 88.2529 114.651 87.4563 115.053 86.6522C115.887 87.3236 117.407 87.4791 119.397 87.5625C117.142 83.7318 123.525 79.8023 120.993 74.5795C120.618 73.7946 121.717 73.2938 121.823 74.0942C122.415 78.5735 125.046 79.5822 127.263 78.1866C126.596 77.4584 126.319 77.4736 125.895 76.8097C127.388 77.208 128.146 76.1234 128.529 74.7653C124.496 73.3468 126.676 69.8651 124.113 66.5387ZM124.454 75.4293C124.534 75.5581 124.742 77.0298 125.307 77.739C122.362 77.5494 123.726 71.3443 120.781 72.8387C119.951 73.256 119.704 74.2345 120.087 75.0347C122.013 79.0247 117.623 82.5406 117.87 86.0378C116.785 86.0301 115.66 85.9998 114.958 84.5396C114.598 85.2679 114.018 86.292 113.704 87.2781L112.824 85.7799C112.278 88.2604 109.966 90.5514 106.85 90.7599C108.332 88.4006 106.55 85.1769 110.174 81.752C109.72 81.3877 108.677 80.6824 108.302 80.2043C112.748 80.7278 117.381 77.2119 115.277 75.543C113.901 74.4544 113.294 76.715 111.175 76.3357L112.005 75.6189C111.713 75.3307 111.376 74.9552 111.031 74.6706C111.937 74.5607 112.923 73.9841 112.923 73.9841L112.385 73.0928C117.589 73.0852 117.714 69.1027 115.61 68.9434C114.621 68.8713 113.332 70.7034 110.129 70.3201C110.535 69.8271 110.701 69.08 110.898 68.5301C110.125 68.4579 109.211 68.4657 108.484 68.1089C110.049 67.9081 110.444 67.3807 111.744 66.3947L110.235 65.8409C112.43 64.7447 112.29 62.8369 112.358 60.8496C111.213 61.5095 109.856 62.5335 108.427 62.0595C108.086 61.9458 107.862 61.7864 107.855 61.4299C109.913 60.6182 111.224 57.4513 106.304 54.7885C103.169 53.0932 95.4892 49.3611 100.69 45.3369C101.403 44.7907 102.176 44.2975 102.828 43.6869C103.643 44.3127 102.529 45.8678 102.252 46.4367C102.252 46.4367 103.98 46.6112 104.39 46.6112C107.07 46.5997 109.879 45.0145 108.457 41.9727C109.522 42.1926 109.648 43.2204 109.974 44.0966C110.656 43.6339 111.839 42.6438 112.76 42.7842C112.013 45.1624 108.893 47.3053 106.463 47.7909C108.916 49.1259 113.465 50.1197 115.857 47.2447C117.532 50.4951 115.197 51.8529 112.904 53.5559C121.638 57.5384 120.345 62.014 126.077 65.5337C125.337 65.8827 122.017 65.181 121.721 65.1393C122.972 66.7512 123.556 67.4338 123.912 68.219C124.261 68.9548 124.413 69.7816 124.757 71.5755C125.03 72.9903 125.527 74.4014 127.24 75.3381C126.569 76.5481 125.076 75.5923 124.454 75.4293Z" fill="black"></path> <path fill-rule="evenodd" clip-rule="evenodd" d="M82.8657 85.2194L84.1129 84.1613L83.9234 83.782C83.7869 83.5089 83.8589 83.4937 84.0031 83.3876L84.6625 82.8983C84.8141 82.7731 84.9734 82.7884 85.1591 82.8338L87.1342 83.2966H85.0493C84.5679 83.3268 84.4275 83.5126 84.2532 83.8691L84.1091 84.1613L83.5747 85.2612C83.3926 85.6405 83.2978 86.1449 83.7755 86.7139L84.1546 87.1653L83.3889 88.7165H84.0332L84.5639 87.6392C84.6057 87.6014 85.3905 86.8846 85.5571 86.1449C85.3297 85.959 85.1706 85.8302 85.2957 85.5722L85.5344 85.0564C85.6142 84.8858 85.6406 84.8175 85.868 84.8592L87.9378 85.3068C88.1955 85.3788 88.5747 85.4926 88.8513 85.0753C89.1356 84.643 89.1736 84.6885 89.833 84.7529L90.8908 84.8666C92.335 85.0033 93.7794 84.643 94.3402 84.1954C94.5374 84.643 94.928 84.9882 95.1098 85.3369C95.1781 85.466 95.0645 85.6481 94.9771 85.8757L93.7906 88.7127H95.6216L96.6567 86.1259C96.7512 85.8795 96.8915 85.6822 96.9976 85.5836L96.4024 88.7165H98.1804L98.6505 85.6178C98.7529 84.9274 98.6921 84.7074 98.3623 84.4229C97.6231 83.7971 97.6383 82.4849 97.3995 81.6885C97.5245 81.6163 97.6724 81.5784 97.8468 81.6011C98.2334 81.6351 98.5253 82.6252 98.9802 83.2622C99.8901 84.5405 101.129 85.9516 102.551 83.964C102.415 83.7366 102.267 83.5318 102.092 83.3344L101.694 82.8678C101.463 82.61 100.364 81.3507 99.9052 80.8995C98.8627 79.8489 97.2631 80.0082 96.6262 80.5202C95.1818 79.7615 93.6581 80.558 93.298 80.5278L90.8113 80.376C90.6975 80.3684 90.5268 80.3304 90.4055 80.1371L90.8681 79.9855C90.4359 78.1837 89.3479 76.678 87.4486 76.4162C87.4486 76.4162 87.3388 75.8475 87.0469 75.7373L86.4783 76.405C86.3192 76.4277 86.1447 76.477 86.0007 76.5375L83.5747 75.635L85.3943 77.4745C85.3943 77.4745 84.4504 78.8133 84.1811 79.0864C84.0031 79.3368 84.018 79.5303 84.2189 79.7692L84.5717 80.2318C84.7535 80.4707 84.9544 80.4633 85.2464 80.3154L85.6444 80.1068C85.8187 79.9626 86.4024 80.2471 86.6526 80.0196C86.4935 80.543 86.4139 81.0473 86.376 81.4456L84.7423 81.2484C84.3858 81.1992 84.2228 81.2484 84.0068 81.419L82.6117 82.4924C82.1569 82.8414 82.0167 83.4444 82.2971 84.0322L82.8657 85.2194ZM96.3608 85.5268L95.254 88.2575H94.5639L95.6709 85.6139C95.7845 85.2727 95.5686 85.1133 95.2919 84.7416C95.7013 84.973 95.9969 85.1246 96.4935 85.3144C96.4517 85.3903 96.3986 85.432 96.3608 85.5268ZM85.686 79.6138L85.3714 79.7807C85.1516 79.9057 85.0417 79.9626 84.8521 79.7273L84.7155 79.553C84.6474 79.4695 84.6247 79.2685 84.7648 79.1093L86.122 77.5276L84.8711 76.4997L86.4632 77.0876L87.0469 76.3594C87.2175 76.5036 87.157 76.9245 87.157 76.9245C87.8014 76.9245 89.6777 77.8576 89.7498 80.194C89.7498 80.194 90.1743 80.8197 90.7164 80.8539L93.4798 81.0208C93.9385 81.0208 95.0833 80.1485 96.554 80.9715C96.9256 80.7477 97.3236 80.5695 97.7331 80.5241C99.0295 80.4292 99.9847 81.3317 100.694 82.2421C101.213 82.902 101.926 83.9109 101.926 83.9109C101.619 84.2752 101.319 84.3965 101.065 84.3053C100.682 84.1083 100.557 83.8008 100.436 83.3723C100.243 82.6935 99.4958 82.1132 99.4958 82.1132C99.7498 82.5684 99.8028 83.0842 99.9241 83.5582C98.8438 82.4887 98.639 81.184 97.8847 81.0018C97.5513 80.9185 97.1607 81.0625 96.8005 81.4798C97.1797 82.3635 97.1607 83.3876 97.5513 84.0741C97.8468 84.5861 97.9113 84.6316 98.0438 84.7453C98.3623 84.973 98.1841 85.3864 98.135 85.6859L97.7256 88.2538H97.0357L97.4904 85.7429C97.6307 84.9767 95.4813 84.9767 94.3821 83.5165C93.4456 84.6125 90.8188 84.3396 89.6815 84.1688C89.2229 84.1005 88.7756 84.131 88.5254 84.5823C88.3776 84.8365 88.1311 84.7606 87.9796 84.7226L85.9058 84.2752C85.542 84.1916 85.3828 84.2637 85.2236 84.5976L84.8104 85.4547C84.7194 85.6556 84.7233 85.8037 84.8899 85.9668L85.0871 86.1754C84.9697 86.5849 84.5944 86.8998 84.5944 86.8998L84.1432 86.3915C83.9234 86.1337 83.9119 85.762 84.0863 85.3977L84.7574 83.9944C84.8369 83.8389 84.981 83.672 85.2614 83.672L87.8239 83.6339L87.0394 82.3558C86.4554 81.3963 87.4259 79.6858 87.278 78.8778C87.1985 79.9587 85.8909 79.4657 85.686 79.6138ZM82.9038 82.8375L84.1166 81.9121C84.3328 81.749 84.4768 81.6429 84.7233 81.6732L86.4368 81.9008C86.5313 82.3103 86.8043 82.7125 86.8043 82.7125L84.981 82.3292C84.7233 82.2991 84.6474 82.3103 84.4048 82.4849L83.5405 83.1372C83.3699 83.27 83.3623 83.4825 83.4609 83.691L83.6012 83.9907L82.9984 84.4458L82.7671 84.0134C82.5322 83.5545 82.517 83.1335 82.9038 82.8375Z" fill="black"></path> <path fill-rule="evenodd" clip-rule="evenodd" d="M88.1886 49.911C88.8519 50.3701 90.0273 50.8594 90.0273 50.8594V50.0779L87.4379 49.0881C87.4379 49.0881 87.4379 49.4065 88.1886 49.911Z" fill="black"></path> <path fill-rule="evenodd" clip-rule="evenodd" d="M90.0226 48.9706V48.1892L87.0848 47.1387C87.0848 47.1387 87.4335 47.5104 88.1843 48.0224C88.8476 48.4776 90.0226 48.9706 90.0226 48.9706Z" fill="black"></path> <path fill-rule="evenodd" clip-rule="evenodd" d="M90.0231 47.1959V46.4109L86.8046 45.2275C86.8046 45.2275 87.434 45.7358 88.1846 46.2478C88.8477 46.7066 90.0231 47.1959 90.0231 47.1959Z" fill="black"></path> <path fill-rule="evenodd" clip-rule="evenodd" d="M99.064 57.865H102.354C102.218 57.387 101.706 56.9055 100.747 56.9055C99.8373 56.9055 99.2914 57.4287 99.064 57.865Z" fill="black"></path> <path fill-rule="evenodd" clip-rule="evenodd" d="M95.622 45.2275L92.411 46.4109V47.1959C92.411 47.1959 93.5863 46.7066 94.2497 46.2478C94.9964 45.7358 95.622 45.2275 95.622 45.2275Z" fill="black"></path> <path fill-rule="evenodd" clip-rule="evenodd" d="M94.9963 49.0881L92.411 50.0816V50.8631C92.411 50.8631 93.5863 50.3701 94.2497 49.9149C94.9964 49.4065 94.9963 49.0881 94.9963 49.0881Z" fill="black"></path> <path fill-rule="evenodd" clip-rule="evenodd" d="M95.3449 47.1387L92.4072 48.1892V48.9706C92.4072 48.9706 93.5861 48.4813 94.2457 48.0261C94.9962 47.5104 95.3449 47.1387 95.3449 47.1387Z" fill="black"></path> <path fill-rule="evenodd" clip-rule="evenodd" d="M81.6799 56.9055C80.7209 56.9055 80.2091 57.387 80.0728 57.865H83.3667C83.1319 57.4287 82.5935 56.9055 81.6799 56.9055Z" fill="black"></path> <path fill-rule="evenodd" clip-rule="evenodd" d="M97.7526 43.1183C97.7526 41.2673 94.6442 39.6099 91.2136 39.6099C87.7829 39.6099 84.6745 41.2673 84.6745 43.1183L84.7466 43.5733L86.1113 51.4359L79.6291 55.2173C78.939 55.6232 78.0749 56.7383 77.9649 57.861H79.1477C79.3448 56.7383 80.2279 55.4941 81.8845 55.5702C83.3818 55.6498 84.2689 56.5601 85.1483 57.861L85.3758 58.2024L85.7018 58.7144H76.1681C76.8694 60.1214 77.5327 61.6159 77.5327 63.2355V83.0681C77.5327 88.1695 81.4486 90.6008 85.6905 90.6008C88.9657 90.6008 89.4091 90.4527 91.2173 92.2621C93.0181 90.4527 93.4614 90.6008 96.7443 90.6008C100.982 90.6008 104.902 88.1695 104.902 83.0681V63.2392C104.902 61.6196 105.565 60.1252 106.267 58.7181H96.7255L97.0552 58.2061L97.2826 57.8648C98.1582 56.5638 99.0491 55.6535 100.546 55.5739C102.196 55.498 103.086 56.742 103.28 57.8648H104.459C104.352 56.742 103.484 55.6232 102.798 55.2212L96.316 51.4396L97.6843 43.5771L97.7526 43.1183ZM86.0012 44.0208L90.8383 45.667V53.2413L87.2751 51.3676L86.0012 44.0208ZM87.1916 60.0913C87.8285 60.9634 88.8595 61.6082 90.0801 61.8586C90.1826 62.3174 90.4328 62.822 90.9179 63.2279C90.717 64.5819 91.2969 65.8449 92.7527 66.1786C92.9043 66.869 93.3326 67.3885 94.049 67.6351L93.0368 68.8033C92.6503 69.2509 92.146 69.395 91.7291 69.3419L87.2106 68.8299C87.4076 68.3292 86.8846 67.749 85.4553 67.9953L87.2333 63.0268L86.1491 60.7246L84.0946 62.4768L83.9429 67.6882L83.0711 67.2597C81.9223 66.7667 81.5889 68.8412 82.6807 68.8488L83.1127 68.8526C83.0861 69.065 83.1507 69.3 83.3176 69.3723C83.1127 69.4594 83.0521 69.8464 83.3098 69.9829C83.0483 70.1042 83.0141 70.4988 83.2227 70.6694C82.9953 71.0525 82.9611 71.883 83.7534 72.0917C84.4016 72.2624 84.8071 71.5646 84.9399 71.1585L91.9679 73.3357C92.9648 73.6202 93.67 73.4609 94.4964 72.7365L96.3312 71.1321C96.0998 72.1827 96.479 73.1272 97.2788 73.4419C97.2788 73.4419 97.165 74.3864 97.1992 74.8073H78.9012V63.2392C78.9012 62.1621 78.5903 61.0851 78.219 60.0913H87.1916ZM94.7503 64.4794C94.3638 65.2191 94.4016 66.0687 94.8563 66.8387L94.5532 67.1343C93.234 66.9713 92.7147 65.0029 92.7147 65.0029C92.6881 65.1811 92.673 65.3519 92.6769 65.5262C91.9074 65.2418 91.422 64.5592 91.4601 63.6224C91.752 63.7854 92.078 63.8991 92.4267 63.9599L92.5175 63.3832C91.5963 63.224 91.0582 62.6476 90.8535 61.9647C90.8081 61.961 90.77 61.9498 90.7283 61.9457C90.8913 61.9572 91.0545 61.9725 91.221 61.9725C91.7669 61.9725 92.2864 61.889 92.7716 61.7448C93.1544 62.291 93.833 62.6817 94.5154 62.7574C94.4053 63.2126 94.4583 63.7778 94.7503 64.4794ZM96.7026 69.6832C96.5698 69.8616 96.4637 70.0663 96.3954 70.2901L95.6601 70.9652C95.808 69.8881 95.084 68.6174 94.4243 68.0978L95.2052 67.3317L95.3607 67.4911C95.0991 68.1774 95.611 69.524 96.7026 69.6832ZM93.1507 69.3456L93.7571 68.7502C94.3713 69.2888 95.1826 70.4912 94.9285 71.6366L94.2689 72.2435C94.1324 72.3763 93.9922 72.471 93.8482 72.5581C94.2614 71.538 93.7344 69.9677 93.1507 69.3456ZM91.8466 69.8501H91.8655C92.0855 69.8843 92.3206 69.8464 92.5328 69.7591C92.9953 70.4192 93.3553 71.9211 92.802 72.8578C92.4872 72.8656 92.1803 72.8085 91.8921 72.7251L91.6646 72.6569C92.131 71.9324 92.0665 70.6503 91.8466 69.8501ZM90.319 69.6605L91.1719 69.7667C91.3084 70.4759 91.2173 71.7011 90.7663 72.399L89.7731 72.1107C90.2092 71.519 90.4138 70.3014 90.319 69.6605ZM88.5411 69.4443L89.576 69.5657C89.6783 70.1346 89.4849 71.3444 89.0946 71.9211L88.0406 71.6176C88.4615 71.0601 88.613 70.0778 88.5411 69.4443ZM84.3523 69.1675C83.8709 69.3229 83.6586 68.9739 83.6776 68.6782C84.6215 68.333 85.0422 68.5569 85.3189 68.7313C85.5729 68.8905 85.7853 69.3456 86.1263 69.6302C86.0695 70.017 85.9519 70.5783 85.8118 70.9537C84.8452 70.7074 84.7959 69.8538 85.1559 69.3344C84.955 69.0992 84.7428 69.0384 84.3523 69.1675ZM83.6776 71.0525C83.6776 71.0525 83.9658 71.1738 84.3296 71.2004C84.2879 71.4015 84.1324 71.591 83.886 71.538C83.6813 71.4924 83.5902 71.2422 83.6776 71.0525ZM82.7261 68.2837C82.4872 68.1244 82.5933 67.7754 82.8588 67.7754C83.1507 67.783 83.5372 68.1129 83.9202 68.276C83.9202 68.276 82.9155 68.4126 82.7261 68.2837ZM83.7078 70.2938C83.9165 70.4949 84.5419 70.4192 84.5419 70.4192L84.5647 70.5442C84.2918 70.9084 83.5334 70.7453 83.7078 70.2938ZM84.5495 69.8804C84.1021 70.0587 83.6435 69.816 83.7837 69.5277C83.9922 69.7173 84.5722 69.6226 84.5722 69.6226L84.5495 69.8804ZM85.2091 64.673L84.3523 67.7945L84.6442 62.7574L85.9709 61.6235L86.6457 63.1064L84.9399 67.9994L85.3911 64.7071C85.4327 64.4719 85.2469 64.4453 85.2091 64.673ZM85.2698 68.4582C85.2698 68.4582 86.2249 68.4126 86.4941 68.5151C86.6911 68.5984 86.5586 68.9324 86.3007 68.8944C86.0317 68.8603 85.2698 68.4582 85.2698 68.4582ZM86.767 69.2168L87.8056 69.3456C87.8853 69.9146 87.7374 70.878 87.366 71.4165L86.3614 71.1246C86.6269 70.4912 86.6911 69.8957 86.767 69.2168ZM103.533 83.072C103.533 85.4842 102.419 87.3161 100.565 88.3326L101.229 86.9824H100.584L99.7314 88.7118C98.8481 89.0457 97.8475 89.2316 96.7404 89.2316C93.3591 89.2316 92.4645 89.3681 91.2136 90.6159C89.9589 89.3681 89.0643 89.2316 85.6867 89.2316C84.5874 89.2316 83.5865 89.0533 82.7071 88.7196H82.7298L83.5827 86.9824H82.9421L82.1953 88.5032C82.0172 88.4199 81.8429 88.3289 81.6761 88.2303L82.2902 86.9824H81.6534L81.1983 87.9116C79.7504 86.8458 78.8975 85.177 78.8975 83.072V75.4863H103.526V83.072H103.533ZM104.22 60.0913C103.837 61.0851 103.53 62.1621 103.53 63.2392V74.8073H102.184C101.574 74.2158 101.058 72.2435 101.058 72.2435C100.725 72.9527 101.107 74.3902 101.464 74.8073H99.7314C99.303 74.227 98.9315 72.1715 98.9315 72.1715C98.4122 72.7629 98.742 74.3598 99.0643 74.8073H97.9118C97.8397 73.9844 98.0748 73.0892 98.0748 73.0892C97.4722 72.9793 96.8315 72.6606 96.8353 71.9931C97.1386 72.2775 97.2636 72.2736 97.6843 72.2662L98.1734 71.8792C96.551 71.9326 96.4752 70.1498 97.7639 69.3153C96.479 69.3571 95.5198 68.591 95.9861 67.2255C95.0725 66.7514 94.7503 65.2038 95.4251 64.525C94.9361 63.9938 94.8563 62.951 95.1674 62.2417C94.5191 62.2417 93.7914 61.9838 93.3857 61.54C93.3553 61.5552 93.3175 61.5666 93.2833 61.5781C94.0946 61.248 94.7806 60.732 95.2431 60.095H104.22V60.0913ZM99.3145 54.5233C97.9801 54.7547 96.8315 56.3895 95.8914 57.8648L95.7853 58.0354H94.7806L94.7769 58.2099C94.6745 59.3478 93.5942 60.8914 91.2136 60.8914C90.1143 60.8914 89.2839 60.5539 88.7156 60.095C88.2228 59.693 87.9119 59.1959 87.7602 58.722C87.7033 58.5514 87.6691 58.3768 87.6542 58.2099L87.6465 58.0354H86.6494L86.5434 57.8648C85.5995 56.3932 84.4509 54.7585 83.1204 54.5233L86.7557 52.4107L91.221 54.8381L95.6792 52.4107L99.3145 54.5233ZM95.1522 51.3676L91.5926 53.2413V45.667L96.4297 44.0208L95.1522 51.3676ZM91.2173 44.8402L85.9293 42.7503C86.3766 41.6883 88.4501 40.7818 91.2173 40.7818C93.9807 40.7818 96.0505 41.6883 96.4978 42.7503L91.2173 44.8402Z" fill="black"></path> <path fill-rule="evenodd" clip-rule="evenodd" d="M102.969 67.5672L102.981 66.9869C101.203 66.9451 100.793 64.8477 100.793 64.8477C100.274 66.3912 101.631 67.5444 102.969 67.5672Z" fill="black"></path> <path fill-rule="evenodd" clip-rule="evenodd" d="M100.725 71.121L100.547 70.5709C99.0304 70.9578 98.2458 68.553 98.2458 68.553C97.7605 70.3015 99.4511 71.5381 100.725 71.121Z" fill="black"></path> <path fill-rule="evenodd" clip-rule="evenodd" d="M101.779 68.8906C99.9665 69.179 99.2237 67.0701 99.2237 67.0701C99.0226 68.2194 99.7657 69.3838 100.968 69.5051C100.695 71.0033 102.086 71.7731 103.291 71.2384L103.117 70.7151C102.071 71.0678 101.089 70.0322 101.779 68.8906Z" fill="black"></path> <path fill-rule="evenodd" clip-rule="evenodd" d="M100.694 62.8717L100.709 62.2913C98.3167 61.7983 98.5177 60.1521 98.5177 60.1521C98.0022 61.7035 99.3592 62.8489 100.694 62.8717Z" fill="black"></path> <path fill-rule="evenodd" clip-rule="evenodd" d="M85.5384 86.9829L84.6817 88.7198H85.3263L86.179 86.9829H85.5384Z" fill="black"></path> <path fill-rule="evenodd" clip-rule="evenodd" d="M86.8314 86.9829L85.9784 88.7198H86.6268L87.4721 86.9829H86.8314Z" fill="black"></path> <path fill-rule="evenodd" clip-rule="evenodd" d="M92.0096 86.9829L91.1567 88.7198H91.7971L92.6539 86.9829H92.0096Z" fill="black"></path> <path fill-rule="evenodd" clip-rule="evenodd" d="M93.3067 86.9829L92.4461 88.7198H93.0944L93.9434 86.9829H93.3067Z" fill="black"></path> <path fill-rule="evenodd" clip-rule="evenodd" d="M90.7166 86.9829L89.8599 88.7198H90.5044L91.3574 86.9829H90.7166Z" fill="black"></path> <path fill-rule="evenodd" clip-rule="evenodd" d="M98.2796 88.7198H98.924L99.7769 86.9829H99.1324L98.2796 88.7198Z" fill="black"></path> <path fill-rule="evenodd" clip-rule="evenodd" d="M88.127 86.9829L87.2739 88.7198H87.9183L88.7714 86.9829H88.127Z" fill="black"></path> <path fill-rule="evenodd" clip-rule="evenodd" d="M89.4174 86.9829L88.5645 88.7198H89.2128L90.0657 86.9829H89.4174Z" fill="black"></path> <path fill-rule="evenodd" clip-rule="evenodd" d="M86.4893 77.645C86.3717 77.645 86.2694 77.7589 86.2694 77.9068C86.2694 78.0508 86.3717 78.1684 86.4893 78.1684C86.6106 78.1684 86.7167 78.0508 86.7167 77.9068C86.713 77.7589 86.6106 77.645 86.4893 77.645Z" fill="black"></path> <path fill-rule="evenodd" clip-rule="evenodd" d="M91.2164 38.4379C93.87 38.4379 95.9966 39.3179 97.1678 40.2622C97.1678 40.2622 97.5204 38.1535 98.7069 36.3025L96.5689 36.5414L95.4507 34.1595L93.3014 35.2784L91.2164 33.2075L89.1316 35.2784L86.9745 34.1595L85.8563 36.5414L83.7183 36.3025C84.9085 38.1535 85.2574 40.2622 85.2574 40.2622C86.4325 39.3179 88.5628 38.4379 91.2164 38.4379ZM86.224 37.4896L87.2438 35.3277L89.1316 36.333L91.2164 34.2734L93.3014 36.333L95.1892 35.3277L96.1975 37.4896L97.4523 37.2963C97.13 37.8993 96.8874 38.4264 96.6638 39.1661C95.2916 38.3659 93.2521 37.7475 91.2164 37.7475C89.1732 37.7475 87.1375 38.3659 85.7653 39.1661C85.5379 38.4264 85.299 37.8993 84.9731 37.2963L86.224 37.4896Z" fill="black"></path> <path fill-rule="evenodd" clip-rule="evenodd" d="M93.4008 34.1788C93.7116 34.2053 93.9882 33.9702 94.0147 33.663C94.0452 33.3521 93.5903 32.5251 93.5903 32.5251C93.5903 32.5251 92.9117 33.2571 92.889 33.5682C92.8586 33.8716 93.0936 34.1485 93.4008 34.1788Z" fill="black"></path> <path fill-rule="evenodd" clip-rule="evenodd" d="M96.9033 35.449C97.1801 35.5971 97.5173 35.4871 97.6652 35.2102C97.8169 34.937 97.7183 34.0002 97.7183 34.0002C97.7183 34.0002 96.816 34.4062 96.6683 34.6829C96.5241 34.956 96.6305 35.2974 96.9033 35.449Z" fill="black"></path> <path fill-rule="evenodd" clip-rule="evenodd" d="M89.03 34.1788C89.3446 34.1485 89.5759 33.8754 89.5493 33.5682C89.5191 33.2571 88.848 32.5251 88.848 32.5251C88.848 32.5251 88.397 33.3558 88.4236 33.663C88.4463 33.9702 88.723 34.2053 89.03 34.1788Z" fill="black"></path> <path fill-rule="evenodd" clip-rule="evenodd" d="M85.5311 35.449C85.8078 35.2974 85.9101 34.956 85.7659 34.6829C85.6219 34.4062 84.716 34.0002 84.716 34.0002C84.716 34.0002 84.6213 34.937 84.7729 35.2102C84.9132 35.4871 85.2544 35.5971 85.5311 35.449Z" fill="black"></path> <path fill-rule="evenodd" clip-rule="evenodd" d="M127.551 54.7165C128.298 54.4509 128.874 53.738 129.162 53.0779C127.263 52.8048 122.218 50.6846 118.07 52.4104C119.625 50.935 121.02 50.7454 121.152 48.6215C121.797 49.0842 122.885 49.3458 123.499 48.2421C123.071 46.979 121.99 48.0032 121.839 47.6542C121.626 47.1686 123.199 47.8022 123.537 46.1599C122.312 45.7389 121.948 46.7402 121.729 46.5087C121.528 46.289 122.506 45.8677 121.786 44.5442C120.512 45.2913 121.175 46.1296 120.906 46.2244C120.58 46.3532 120.838 45.3253 119.428 45.3747C119.287 46.8881 120.75 46.9374 120.512 47.1764C120.22 47.4683 119.841 46.3076 118.776 46.8957C118.795 48.117 119.784 48.7883 120.804 48.5001C120.637 50.8213 118.506 50.3889 116.922 53.0059C120.28 54.7279 121.8 57.7318 123.867 59.8101C124.549 59.3249 125.717 57.1704 125.717 57.1704C127.953 58.9037 129.526 57.178 129.526 57.178C128.757 56.389 128.726 55.79 127.551 54.7165ZM124.291 55.1375C124.522 55.6497 124.981 57.4359 123.885 58.7976C122.638 56.3057 120.925 54.1703 119.537 53.2487C119.234 53.0515 119.704 52.7062 120.561 52.5924C123.143 52.1031 126.171 53.1955 127.612 53.5787C126.941 54.0792 126.395 54.3069 125.709 54.3904C126.755 55.2702 127.521 56.0136 128.059 56.8405C127.047 57.0947 126.475 56.4536 124.291 55.1375Z" fill="black"></path> <path fill-rule="evenodd" clip-rule="evenodd" d="M102.726 93.8774V91.0403C100.535 92.0456 97.7484 92.861 94.1624 93.1836L93.9993 94.196C94.3025 94.2379 94.6892 94.2757 95.2049 94.3099C93.878 94.492 92.1608 94.5792 91.2208 94.5792C90.2769 94.5792 88.5634 94.492 87.2329 94.3099C87.7447 94.2757 88.1312 94.2379 88.4346 94.196L88.2715 93.1836C84.6855 92.861 81.8956 92.0456 79.7083 91.0403V93.8774L76.7363 95.0988C78.9387 96.2443 81.471 97.1773 84.3973 97.9322L84.0486 99.1193C85.7242 99.6123 88.4042 100.113 91.2131 100.113C94.022 100.113 96.6985 99.6086 98.3775 99.1193L98.0326 97.9322C100.955 97.1773 103.495 96.2443 105.698 95.0988L102.726 93.8774ZM78.3245 95.1634L80.3299 94.3554V92.0456C81.6186 92.5423 83.3094 93.0582 85.7354 93.5627L84.5982 97.2683C82.123 96.6995 80.019 95.9332 78.3245 95.1634ZM91.2169 99.4339C88.9538 99.4339 86.7439 99.0964 84.8561 98.63L86.0577 94.7424C86.8538 94.9282 88.8477 95.1709 91.2169 95.1709C93.5899 95.1709 95.5726 94.9242 96.3725 94.7424L97.5778 98.63C95.6824 99.0964 93.4762 99.4339 91.2169 99.4339ZM97.8394 97.2683L96.7022 93.5627C99.1281 93.0619 100.819 92.5423 102.108 92.0456V94.3554L104.109 95.1634C102.415 95.9332 100.319 96.6995 97.8394 97.2683Z" fill="black"></path> <path fill-rule="evenodd" clip-rule="evenodd" d="M56.7176 57.1704C56.7176 57.1704 57.8852 59.3249 58.5637 59.8101C60.6334 57.7356 62.1572 54.7316 65.5121 53.0059C63.9237 50.3889 61.7934 50.8289 61.6341 48.5001C62.6538 48.7883 63.6395 48.1131 63.6622 46.8957C62.5932 46.3076 62.2142 47.4761 61.926 47.1764C61.6873 46.9297 63.1466 46.8881 63.0103 45.3747C61.6001 45.3292 61.8578 46.3532 61.528 46.2244C61.2626 46.1296 61.926 45.2874 60.6486 44.5442C59.9321 45.8717 60.9139 46.289 60.7092 46.5087C60.4933 46.7402 60.1217 45.7426 58.901 46.1599C59.2309 47.8022 60.8115 47.1686 60.5993 47.6542C60.4477 48.0032 59.371 46.979 58.9465 48.2421C59.5531 49.3497 60.6449 49.0879 61.2853 48.6253C61.4219 50.753 62.8131 50.9312 64.371 52.4104C60.2203 50.6846 55.1748 52.8048 53.268 53.0817C53.5599 53.738 54.1361 54.4509 54.8829 54.7089C53.7078 55.7937 53.6773 56.3931 52.908 57.178C52.908 57.178 54.4773 58.9037 56.7176 57.1704ZM54.3673 56.8443C54.9094 56.0173 55.6714 55.2702 56.7251 54.3941C56.0352 54.3069 55.4931 54.0792 54.8183 53.5787C56.2626 53.1955 59.2952 52.0994 61.8805 52.5924C62.7296 52.7062 63.2074 53.0515 62.8965 53.2487C61.509 54.1703 59.7918 56.3057 58.5447 58.7976C57.4529 57.4359 57.9155 55.6534 58.1391 55.1413C55.9594 56.4536 55.3907 57.0947 54.3673 56.8443Z" fill="black"></path> <path fill-rule="evenodd" clip-rule="evenodd" d="M89.4008 55.5889V56.8368C89.8293 56.3172 90.6632 56.4195 90.6632 56.4195V58.2211C90.6632 58.2211 90.6329 59.1088 90.322 59.488H91.2205H92.119C91.8042 59.1088 91.7777 58.2211 91.7777 58.2211V56.4233C91.7777 56.4233 92.6078 56.3211 93.0363 56.8405V55.5926H91.2205H89.4008V55.5889Z" fill="black"></path> <path d="M157.349 75.9836V63.9327H164.462V59.5474H145.056V63.9327H152.169V75.9836H157.349ZM171.541 69.1122V59.5474H166.535V75.9836H170.955L179.587 66.4188V75.9836H184.594V59.5474H180.174L171.541 69.1122ZM201.438 69.8719V75.9836H206.444V59.5474H201.438V65.5556H193.392V59.5474H188.386V75.9836H193.392V69.8719H201.438ZM220.389 75.9836C221.527 75.9836 222.564 75.8801 223.531 75.6037C226.121 74.8788 227.811 72.7724 227.811 69.9062C227.811 67.1785 226.364 65.2794 224.049 64.416C222.942 64.0017 221.632 63.967 220.389 63.967H215.244V59.5474H210.236V75.9836H220.389ZM219.526 67.8345C220.216 67.8345 220.872 67.8345 221.459 68.0417C222.288 68.3178 222.77 69.0086 222.77 69.8373C222.77 70.7006 222.288 71.4257 221.493 71.7709C220.94 72.0127 220.389 72.0127 219.526 72.0127H215.244V67.8345H219.526ZM236.79 69.7683L242.763 75.9836H249.428L241.106 67.4201L249.117 59.5474H242.832L236.79 65.7283H235.408V59.5474H230.403V75.9836H235.408V69.7683H236.79ZM259.729 59.0984C252.995 59.0984 248.956 62.8967 248.956 67.7999C248.956 72.7033 252.995 76.5016 259.729 76.5016C266.429 76.5016 270.469 72.7033 270.469 67.7999C270.469 62.8967 266.429 59.0984 259.729 59.0984ZM259.729 72.496C256.381 72.496 254.241 70.4934 254.241 67.7999C254.241 65.1068 256.381 63.1383 259.729 63.1383C263.044 63.1383 265.219 65.1068 265.219 67.7999C265.219 70.4934 263.044 72.496 259.729 72.496ZM287.143 58.615H282.137V60.2724C275.852 60.4106 272.088 63.0695 272.088 67.7655C272.088 72.4615 275.852 74.9132 282.137 75.0513V76.7088H287.143V75.0513C293.461 74.9132 297.226 72.4615 297.226 67.7655C297.226 63.0695 293.461 60.4106 287.143 60.2724V58.615ZM282.137 71.5293C278.683 71.3911 277.165 69.9752 277.165 67.7655C277.165 65.5556 278.683 63.967 282.137 63.8291V71.5293ZM287.143 63.8291C290.632 63.967 292.115 65.5556 292.115 67.7655C292.115 69.9752 290.632 71.3911 287.143 71.5293V63.8291ZM313.884 58.615H308.876V60.2724C302.593 60.4106 298.829 63.0695 298.829 67.7655C298.829 72.4615 302.593 74.9132 308.876 75.0513V76.7088H313.884V75.0513C320.204 74.9132 323.965 72.4615 323.965 67.7655C323.965 63.0695 320.204 60.4106 313.884 60.2724V58.615ZM308.876 71.5293C305.424 71.3911 303.904 69.9752 303.904 67.7655C303.904 65.5556 305.424 63.967 308.876 63.8291V71.5293ZM313.884 63.8291C317.371 63.967 318.856 65.5556 318.856 67.7655C318.856 69.9752 317.371 71.3911 313.884 71.5293V63.8291Z" fill="black"></path> </svg> 